<?xml version="1.0" encoding="iso-8859-1"?>
<!-- Generator: Adobe Illustrator 19.0.0, SVG Export Plug-In . SVG Version: 6.00 Build 0)  -->
<svg version="1.1" id="Layer_1" xmlns="http://www.w3.org/2000/svg" xmlns:xlink="http://www.w3.org/1999/xlink" x="0px" y="0px"
	 viewBox="0 0 504.118 504.118" style="enable-background:new 0 0 504.118 504.118;" xml:space="preserve">
<g>
	<path style="fill:#105FA0;" d="M285.242,487.949c-4.277,0-8.562-1.631-11.839-4.907l-39.322-39.322
		c-6.546-6.538-6.546-17.156,0-23.694l39.322-39.306c6.546-6.554,17.148-6.554,23.702,0c6.554,6.538,6.554,17.14,0,23.694
		l-27.49,27.459l27.483,27.49c6.546,6.538,6.546,17.14,0,23.678C293.82,486.319,289.535,487.949,285.242,487.949z"/>
	<path style="fill:#105FA0;" d="M400.82,255.076c-3.6,0.016-6.522-2.907-6.522-6.522c0.024-63.031-51.271-114.31-114.294-114.31
		c-3.616-0.016-6.53-2.922-6.53-6.522c0-3.616,2.914-6.538,6.53-6.522c70.231-0.016,127.362,57.123,127.338,127.354
		C407.382,252.154,404.444,255.076,400.82,255.076z"/>
	<path style="fill:#105FA0;" d="M368.312,253.319c-2.639,0-4.773-2.135-4.773-4.766c0-46.064-37.478-83.535-83.527-83.535
		c-2.631,0-4.773-2.135-4.758-4.758c-0.024-2.631,2.127-4.766,4.766-4.766c51.31,0,93.042,41.74,93.042,93.042
		C373.062,251.185,370.959,253.319,368.312,253.319z"/>
	<path style="fill:#105FA0;" d="M339.916,251.768c-1.804,0-3.245-1.434-3.222-3.23c-0.024-31.232-25.435-56.643-56.674-56.643
		c-1.804,0-3.269-1.465-3.253-3.261c-0.016-1.772,1.449-3.23,3.253-3.23c34.808,0,63.134,28.325,63.134,63.141
		C343.145,250.35,341.704,251.799,339.916,251.768z"/>
</g>
<path style="fill:#D64505;" d="M269.591,218.598h-15.053V95.411c0-3.017-1.898-5.695-4.758-6.664
	c-2.851-0.953-6.002-0.032-7.845,2.339l-117.918,152.34c-1.347,1.741-1.717,3.97-1.189,6.049c-0.071,0-0.118-0.032-0.181-0.032
	H68.768l46.301-59.014c10.059-12.863,15.888-23.71,15.888-41.094c0-33.477-29.097-60.723-64.835-60.723
	c-35.745,0-64.835,27.246-64.835,60.723c0,28.956,21.827,53.366,50.806,59.353L1.46,274.256c-1.631,2.127-1.922,5.002-0.74,7.396
	c1.174,2.418,3.631,3.954,6.317,3.954h115.602c3.883,0,7.034-3.167,7.034-7.05v-22.095c0-0.614-0.197-1.15-0.354-1.741
	c0.095,0,0.173,0.032,0.268,0.032h85.701v23.796c0,3.875,3.143,7.05,7.042,7.05h25.175c3.891,0,7.034-3.167,7.034-7.05v-23.796
	h15.053c3.883,0,7.042-3.135,7.042-7.034v-22.095C276.625,221.749,273.474,218.598,269.591,218.598z M65.594,125.044
	c13.312,0,24.56,11.138,24.56,24.292c0,13.186-11.248,24.324-24.56,24.324c-13.391,0-24.292-10.91-24.292-24.324
	C41.302,135.953,52.203,125.044,65.594,125.044z M215.287,183.522v35.076h-26.766L215.287,183.522z"/>
<path style="fill:#105FA0;" d="M286.439,16.169c-11.382,0-22.552,0.874-33.469,2.584v41.756c10.846-2.095,22.032-3.277,33.469-3.277
	c97.39,0,176.601,79.218,176.601,176.601s-79.21,176.601-176.601,176.601c-11.327,0-20.527,9.2-20.527,20.535
	c0,11.351,9.2,20.535,20.527,20.535c120.029,0,217.679-97.642,217.679-217.679S406.476,16.169,286.439,16.169z"/>
<path style="fill:#55B2FF;" d="M249.221,300.447h-9.271c-1.386,0-2.489,1.111-2.489,2.473v24.891h-19.858V302.92
	c0-1.371-1.103-2.473-2.481-2.473h-9.279c-1.378,0-2.497,1.111-2.497,2.473v63.677c0,1.371,1.126,2.489,2.497,2.489h9.279
	c1.386,0,2.481-1.126,2.481-2.489v-25.616h19.858v25.616c0,1.371,1.111,2.489,2.489,2.489h9.271c1.386,0,2.489-1.126,2.489-2.489
	V302.92C251.71,301.55,250.599,300.447,249.221,300.447z"/>
<g>
</g>
<g>
</g>
<g>
</g>
<g>
</g>
<g>
</g>
<g>
</g>
<g>
</g>
<g>
</g>
<g>
</g>
<g>
</g>
<g>
</g>
<g>
</g>
<g>
</g>
<g>
</g>
<g>
</g>
</svg>
