<?xml version="1.0" encoding="UTF-8" standalone="no"?>
<svg
   xmlns:dc="http://purl.org/dc/elements/1.1/"
   xmlns:cc="http://creativecommons.org/ns#"
   xmlns:rdf="http://www.w3.org/1999/02/22-rdf-syntax-ns#"
   xmlns:svg="http://www.w3.org/2000/svg"
   xmlns="http://www.w3.org/2000/svg"
   viewBox="0 0 1000 666.66669"
   height="666.66669"
   width="1000"
   xml:space="preserve"
   id="svg2"
   version="1.1"><metadata
     id="metadata8"><rdf:RDF><cc:Work
         rdf:about=""><dc:format>image/svg+xml</dc:format><dc:type
           rdf:resource="http://purl.org/dc/dcmitype/StillImage" /></cc:Work></rdf:RDF></metadata><defs
     id="defs6" /><g
     transform="matrix(1.3333333,0,0,-1.3333333,0,666.66667)"
     id="g10"><g
       transform="scale(0.1)"
       id="g12"><path
         id="path14"
         style="fill:#ffffff;fill-opacity:1;fill-rule:nonzero;stroke:none"
         d="M 0,0 H 7500 V 5000 H 0 Z" /><path
         id="path16"
         style="fill:#d3edfb;fill-opacity:1;fill-rule:nonzero;stroke:none"
         d="m 4176.7,4088.24 c -99.19,39.17 -206.13,61.91 -312.2,66.66 -290.16,12.99 -562.65,-108.04 -846.83,-144.64 -189.61,-24.42 -382.69,-21.88 -571.59,7.54 -187.05,29.13 -361.8,123.52 -553.51,95.64 -223.6,-32.52 -412.55,-196.39 -485.32,-409.07 -36.01,-105.24 -42.51,-219.79 -15.84,-327.97 12.12,-49.2 46.2,-95.77 26.08,-145.91 -18.83,-46.91 -81.72,-74.44 -122.51,-97.8 -87.32,-50.01 -159,-110.76 -222.01,-190.2 C 912.371,2740 841.684,2472.85 900.473,2219.13 c 96.445,-416.23 511.907,-694.61 932.887,-633.38 313.25,45.57 560.43,259.43 663.33,536.64 136.75,108.88 267.29,224.27 393.31,322.61 308.33,240.63 615.39,333.27 996.64,389.3 236.16,34.71 488.95,98.74 637.7,285.43 283.09,355.27 24.27,821.65 -347.64,968.51" /><path
         id="path18"
         style="fill:#ffffff;fill-opacity:1;fill-rule:nonzero;stroke:none"
         d="m 1590.96,1898.49 -38.35,-5.58 c -6.19,20.25 -14.41,39.44 -24.56,57.36 l 30.34,23.94 c 3.89,3.07 4.55,8.71 1.48,12.6 l -43.41,55.03 c -3.08,3.88 -8.72,4.55 -12.6,1.48 l -30.28,-23.89 c -15.3,14.22 -32.08,26.74 -50.07,37.36 l 14.27,35.83 c 1.84,4.6 -0.41,9.81 -5.01,11.65 l -65.11,25.94 c -4.61,1.83 -9.82,-0.41 -11.65,-5.01 l -14.31,-35.9 c -20.07,4.62 -40.81,7.04 -61.99,7.2 l -5.57,38.35 c -0.72,4.91 -5.27,8.29 -10.17,7.58 l -69.37,-10.09 c -4.9,-0.71 -8.3,-5.26 -7.58,-10.16 l 5.58,-38.35 c -20.26,-6.19 -39.45,-14.42 -57.37,-24.56 l -23.94,30.34 c -3.06,3.89 -8.71,4.55 -12.59,1.48 l -55.03,-43.41 c -3.89,-3.08 -4.55,-8.72 -1.49,-12.61 l 23.89,-30.28 c -14.22,-15.3 -26.73,-32.08 -37.35,-50.06 l -18.57,7.4 c 28.07,-43.18 60.05,-83.46 95.33,-120.47 13.78,71.01 70.85,128.89 146.47,139.88 95.65,13.92 184.47,-52.34 198.38,-147.99 10.66,-73.31 -25.86,-142.46 -86.51,-177.09 40.8,-19.02 83.1,-34.96 126.6,-47.32 l -2.21,2.78 c 14.23,15.31 26.75,32.08 37.36,50.08 l 35.83,-14.28 c 4.6,-1.83 9.82,0.41 11.65,5.01 l 25.94,65.12 c 1.84,4.6 -0.41,9.82 -5.01,11.65 l -35.89,14.31 c 4.61,20.07 7.03,40.81 7.19,61.98 l 38.35,5.58 c 4.91,0.71 8.3,5.26 7.59,10.16 l -10.09,69.37 c -0.71,4.9 -5.27,8.3 -10.17,7.59" /><path
         id="path20"
         style="fill:#ffffff;fill-opacity:1;fill-rule:nonzero;stroke:none"
         d="m 1272.94,1837.26 c -15.96,-2.32 -27.01,-17.14 -24.69,-33.1 2.32,-15.96 17.14,-27.02 33.1,-24.7 15.96,2.33 27.01,17.14 24.69,33.11 -2.32,15.96 -17.14,27.01 -33.1,24.69" /><path
         id="path22"
         style="fill:#ffffff;fill-opacity:1;fill-rule:nonzero;stroke:none"
         d="m 1039.15,2105.27 -5.59,38.35 c 20.26,6.19 39.45,14.43 57.37,24.56 l 23.94,-30.33 c 3.07,-3.89 8.71,-4.55 12.6,-1.48 l 55.03,43.42 c 3.88,3.06 4.55,8.71 1.48,12.59 l -23.89,30.28 c 14.22,15.3 26.74,32.08 37.35,50.07 l 35.83,-14.27 c 4.6,-1.84 9.82,0.41 11.65,5.01 l 25.95,65.11 c 1.83,4.6 -0.41,9.82 -5.02,11.65 l -35.89,14.31 c 4.62,20.07 7.03,40.81 7.2,61.98 l 38.35,5.58 c 4.9,0.71 8.3,5.26 7.58,10.17 l -10.09,69.37 c -0.71,4.9 -5.26,8.29 -10.16,7.58 l -38.35,-5.58 c -6.19,20.25 -14.42,39.45 -24.56,57.37 l 30.33,23.94 c 3.89,3.06 4.55,8.7 1.49,12.59 l -43.42,55.03 c -3.07,3.89 -8.71,4.55 -12.6,1.49 l -30.28,-23.89 c -15.29,14.21 -32.08,26.73 -50.06,37.35 l 14.27,35.83 c 1.83,4.6 -0.41,9.81 -5.02,11.65 l -65.11,25.94 c -4.6,1.84 -9.82,-0.41 -11.65,-5.01 l -14.31,-35.9 c -20.062,4.62 -40.804,7.04 -61.984,7.21 l -3.523,24.24 c -19.645,-46.68 -35.235,-94.92 -46.532,-144.11 7.254,2.04 14.641,3.8 22.297,4.91 95.652,13.91 184.462,-52.34 198.382,-147.99 13.91,-95.66 -52.35,-184.47 -147.999,-198.38 -28.113,-4.09 -55.563,-1.1 -80.766,7.38 2.118,-11.41 4.399,-22.8 7.028,-34.16 6.914,-29.84 15.648,-58.89 25.726,-87.24 6.711,-0.51 13.449,-0.88 20.25,-0.93 l 5.578,-38.35 c 0.711,-4.9 5.27,-8.3 10.168,-7.59 l 69.365,10.09 c 4.9,0.71 8.3,5.26 7.59,10.16" /><path
         id="path24"
         style="fill:#ffffff;fill-opacity:1;fill-rule:nonzero;stroke:none"
         d="m 977.914,2423.3 c -2.316,15.96 -17.137,27.01 -33.101,24.69 -15.958,-2.32 -27.016,-17.14 -24.692,-33.1 2.32,-15.95 17.141,-27.01 33.102,-24.69 15.957,2.32 27.015,17.13 24.691,33.1" /><path
         id="path26"
         style="fill:#2a3c83;fill-opacity:1;fill-rule:nonzero;stroke:none"
         d="m 2465.22,1468.86 c -81.63,0 -148.04,66.4 -148.04,148.04 v 2070.09 c 0,81.64 66.41,148.05 148.04,148.05 H 5556 c 81.63,0 148.04,-66.41 148.04,-148.05 V 1616.9 c 0,-81.64 -66.41,-148.04 -148.04,-148.04 H 2465.22" /><path
         id="path28"
         style="fill:#344aa6;fill-opacity:1;fill-rule:nonzero;stroke:none"
         d="M 5556,1488.86 H 2465.22 c -70.71,0 -128.04,57.32 -128.04,128.04 v 2070.09 c 0,70.72 57.33,128.05 128.04,128.05 H 5556 c 70.71,0 128.04,-57.33 128.04,-128.05 V 1616.9 c 0,-70.72 -57.33,-128.04 -128.04,-128.04" /><path
         id="path30"
         style="fill:#4463b8;fill-opacity:1;fill-rule:nonzero;stroke:none"
         d="m 2465.22,1568.86 c -26.49,0 -48.04,21.55 -48.04,48.04 v 2070.09 c 0,26.5 21.55,48.05 48.04,48.05 H 5556 c 26.49,0 48.04,-21.55 48.04,-48.05 V 1616.9 c 0,-26.49 -21.55,-48.04 -48.04,-48.04 H 2465.22" /><path
         id="path32"
         style="fill:#ffffff;fill-opacity:1;fill-rule:nonzero;stroke:none"
         d="m 5604.04,3456.63 v 230.36 c 0,26.5 -21.55,48.05 -48.04,48.05 H 2465.22 c -26.49,0 -48.04,-21.55 -48.04,-48.05 v -230.36 h 3186.86" /><path
         id="path34"
         style="fill:#6b83cb;fill-opacity:1;fill-rule:nonzero;stroke:none"
         d="m 2465.22,1568.86 v 0 c -26.49,0 -48.04,21.55 -48.04,48.04 v 1839.73 h 75.08 l -27.04,-1887.77" /><path
         id="path36"
         style="fill:#ffffff;fill-opacity:1;fill-rule:nonzero;stroke:none"
         d="m 2492.26,3456.63 h -75.08 v 230.36 c 0,26.5 21.55,48.05 48.04,48.05 H 5556 c 26.49,0 48.04,-21.55 48.04,-48.05 v 0 l -3108.91,-30.36 -2.87,-200" /><path
         id="path38"
         style="fill:#283876;fill-opacity:1;fill-rule:nonzero;stroke:none"
         d="M 5495.93,1524.05 H 4262.71 v 591.13 h 1233.22 v -591.13" /><path
         id="path40"
         style="fill:#202b56;fill-opacity:1;fill-rule:nonzero;stroke:none"
         d="m 4262.71,1611.42 v -87.37 h 1233.22 v 87.37 H 4262.71" /><path
         id="path42"
         style="fill:#344aa6;fill-opacity:1;fill-rule:nonzero;stroke:none"
         d="m 4688.74,2070.53 h -283.7 c -53.86,0 -97.68,-43.82 -97.68,-97.68 v -247.11 h 381.38 v 344.79" /><path
         id="path44"
         style="fill:#344aa6;fill-opacity:1;fill-rule:nonzero;stroke:none"
         d="m 5353.6,2070.53 h -644.4 v -344.79 h 742.07 v 247.11 c 0,53.86 -43.81,97.68 -97.67,97.68" /><path
         id="path46"
         style="fill:#fccc17;fill-opacity:1;fill-rule:nonzero;stroke:none"
         d="m 4762.14,2028.36 h 37.21 v -37.21 h -37.21 v 37.21" /><path
         id="path48"
         style="fill:#47c1b5;fill-opacity:1;fill-rule:nonzero;stroke:none"
         d="m 4762.14,1953.95 h 37.21 v -37.21 h -37.21 v 37.21" /><path
         id="path50"
         style="fill:#fccc17;fill-opacity:1;fill-rule:nonzero;stroke:none"
         d="m 4762.14,1879.53 h 37.21 v -37.21 h -37.21 v 37.21" /><path
         id="path52"
         style="fill:#47c1b5;fill-opacity:1;fill-rule:nonzero;stroke:none"
         d="m 4762.14,1805.12 h 37.21 v -37.21 h -37.21 v 37.21" /><path
         id="path54"
         style="fill:#ffffff;fill-opacity:1;fill-rule:nonzero;stroke:none"
         d="m 4830.98,2028.36 h 37.2 v -37.21 h -37.2 v 37.21" /><path
         id="path56"
         style="fill:#fccc17;fill-opacity:1;fill-rule:nonzero;stroke:none"
         d="m 4830.98,1953.95 h 37.2 v -37.21 h -37.2 v 37.21" /><path
         id="path58"
         style="fill:#47c1b5;fill-opacity:1;fill-rule:nonzero;stroke:none"
         d="m 4830.98,1879.53 h 37.2 v -37.21 h -37.2 v 37.21" /><path
         id="path60"
         style="fill:#ffffff;fill-opacity:1;fill-rule:nonzero;stroke:none"
         d="m 4830.98,1805.12 h 37.2 v -37.21 h -37.2 v 37.21" /><path
         id="path62"
         style="fill:#47c1b5;fill-opacity:1;fill-rule:nonzero;stroke:none"
         d="m 4899.81,2028.36 h 37.21 v -37.21 h -37.21 v 37.21" /><path
         id="path64"
         style="fill:#ffffff;fill-opacity:1;fill-rule:nonzero;stroke:none"
         d="m 4899.81,1953.95 h 37.21 v -37.21 h -37.21 v 37.21" /><path
         id="path66"
         style="fill:#47c1b5;fill-opacity:1;fill-rule:nonzero;stroke:none"
         d="m 4899.81,1879.53 h 37.21 v -37.21 h -37.21 v 37.21" /><path
         id="path68"
         style="fill:#fccc17;fill-opacity:1;fill-rule:nonzero;stroke:none"
         d="m 4899.81,1805.12 h 37.21 v -37.21 h -37.21 v 37.21" /><path
         id="path70"
         style="fill:#283876;fill-opacity:1;fill-rule:nonzero;stroke:none"
         d="m 4968.64,2028.36 h 356.53 v -37.21 h -356.53 v 37.21" /><path
         id="path72"
         style="fill:#283876;fill-opacity:1;fill-rule:nonzero;stroke:none"
         d="m 4968.64,1953.95 h 356.53 v -37.21 h -356.53 v 37.21" /><path
         id="path74"
         style="fill:#283876;fill-opacity:1;fill-rule:nonzero;stroke:none"
         d="m 4968.64,1879.53 h 356.53 v -37.21 h -356.53 v 37.21" /><path
         id="path76"
         style="fill:#283876;fill-opacity:1;fill-rule:nonzero;stroke:none"
         d="m 4968.64,1805.12 h 356.53 v -37.21 h -356.53 v 37.21" /><path
         id="path78"
         style="fill:#ffffff;fill-opacity:1;fill-rule:nonzero;stroke:none"
         d="m 4359.15,1898.13 c 0,76.72 62.18,138.91 138.9,138.91 76.72,0 138.91,-62.19 138.91,-138.91 0,-76.71 -62.19,-138.9 -138.91,-138.9 -76.72,0 -138.9,62.19 -138.9,138.9" /><path
         id="path80"
         style="fill:#283876;fill-opacity:1;fill-rule:nonzero;stroke:none"
         d="m 4379.19,1898.13 c 0,65.65 53.22,118.86 118.86,118.86 65.65,0 118.86,-53.21 118.86,-118.86 0,-65.64 -53.21,-118.85 -118.86,-118.85 -65.64,0 -118.86,53.21 -118.86,118.85" /><path
         id="path82"
         style="fill:#202b56;fill-opacity:1;fill-rule:nonzero;stroke:none"
         d="m 4442.24,1898.13 c 0,30.83 24.99,55.82 55.81,55.82 30.83,0 55.81,-24.99 55.81,-55.82 0,-30.82 -24.98,-55.81 -55.81,-55.81 -30.82,0 -55.81,24.99 -55.81,55.81" /><path
         id="path84"
         style="fill:#fccc17;fill-opacity:1;fill-rule:nonzero;stroke:none"
         d="m 4430.82,1659.38 h -123.46 v 22.33 h 123.46 v -22.33" /><path
         id="path86"
         style="fill:#fccc17;fill-opacity:1;fill-rule:nonzero;stroke:none"
         d="m 4634.91,1659.38 h -123.45 v 22.33 h 123.45 v -22.33" /><path
         id="path88"
         style="fill:#344aa6;fill-opacity:1;fill-rule:nonzero;stroke:none"
         d="m 4839,1659.38 h -123.45 v 22.33 H 4839 v -22.33" /><path
         id="path90"
         style="fill:#344aa6;fill-opacity:1;fill-rule:nonzero;stroke:none"
         d="m 5043.09,1659.38 h -123.45 v 22.33 h 123.45 v -22.33" /><path
         id="path92"
         style="fill:#344aa6;fill-opacity:1;fill-rule:nonzero;stroke:none"
         d="m 5247.18,1659.38 h -123.45 v 22.33 h 123.45 v -22.33" /><path
         id="path94"
         style="fill:#344aa6;fill-opacity:1;fill-rule:nonzero;stroke:none"
         d="m 5451.27,1659.38 h -123.45 v 22.33 h 123.45 v -22.33" /><path
         id="path96"
         style="fill:#283876;fill-opacity:1;fill-rule:nonzero;stroke:none"
         d="M 5495.93,932.93 H 4262.71 v 591.12 H 5495.93 V 932.93" /><path
         id="path98"
         style="fill:#202b56;fill-opacity:1;fill-rule:nonzero;stroke:none"
         d="m 4262.71,1020.29 v -87.36 h 1233.22 v 87.36 H 4262.71" /><path
         id="path100"
         style="fill:#344aa6;fill-opacity:1;fill-rule:nonzero;stroke:none"
         d="m 4688.74,1479.4 h -283.7 c -53.86,0 -97.68,-43.81 -97.68,-97.67 v -247.11 h 381.38 v 344.78" /><path
         id="path102"
         style="fill:#344aa6;fill-opacity:1;fill-rule:nonzero;stroke:none"
         d="m 5353.6,1479.4 h -644.4 v -344.78 h 742.07 v 247.11 c 0,53.86 -43.81,97.67 -97.67,97.67" /><path
         id="path104"
         style="fill:#fccc17;fill-opacity:1;fill-rule:nonzero;stroke:none"
         d="m 4762.14,1437.24 h 37.21 v -37.21 h -37.21 v 37.21" /><path
         id="path106"
         style="fill:#47c1b5;fill-opacity:1;fill-rule:nonzero;stroke:none"
         d="m 4762.14,1362.82 h 37.21 v -37.2 h -37.21 v 37.2" /><path
         id="path108"
         style="fill:#fccc17;fill-opacity:1;fill-rule:nonzero;stroke:none"
         d="m 4762.14,1288.41 h 37.21 v -37.21 h -37.21 v 37.21" /><path
         id="path110"
         style="fill:#47c1b5;fill-opacity:1;fill-rule:nonzero;stroke:none"
         d="m 4762.14,1213.99 h 37.21 v -37.2 h -37.21 v 37.2" /><path
         id="path112"
         style="fill:#ffffff;fill-opacity:1;fill-rule:nonzero;stroke:none"
         d="m 4830.98,1437.24 h 37.2 v -37.21 h -37.2 v 37.21" /><path
         id="path114"
         style="fill:#fccc17;fill-opacity:1;fill-rule:nonzero;stroke:none"
         d="m 4830.98,1362.82 h 37.2 v -37.2 h -37.2 v 37.2" /><path
         id="path116"
         style="fill:#47c1b5;fill-opacity:1;fill-rule:nonzero;stroke:none"
         d="m 4830.98,1288.41 h 37.2 v -37.21 h -37.2 v 37.21" /><path
         id="path118"
         style="fill:#ffffff;fill-opacity:1;fill-rule:nonzero;stroke:none"
         d="m 4830.98,1213.99 h 37.2 v -37.2 h -37.2 v 37.2" /><path
         id="path120"
         style="fill:#47c1b5;fill-opacity:1;fill-rule:nonzero;stroke:none"
         d="m 4899.81,1437.24 h 37.21 v -37.21 h -37.21 v 37.21" /><path
         id="path122"
         style="fill:#ffffff;fill-opacity:1;fill-rule:nonzero;stroke:none"
         d="m 4899.81,1362.82 h 37.21 v -37.2 h -37.21 v 37.2" /><path
         id="path124"
         style="fill:#47c1b5;fill-opacity:1;fill-rule:nonzero;stroke:none"
         d="m 4899.81,1288.41 h 37.21 v -37.21 h -37.21 v 37.21" /><path
         id="path126"
         style="fill:#fccc17;fill-opacity:1;fill-rule:nonzero;stroke:none"
         d="m 4899.81,1213.99 h 37.21 v -37.2 h -37.21 v 37.2" /><path
         id="path128"
         style="fill:#283876;fill-opacity:1;fill-rule:nonzero;stroke:none"
         d="m 4968.64,1437.24 h 356.53 v -37.21 h -356.53 v 37.21" /><path
         id="path130"
         style="fill:#283876;fill-opacity:1;fill-rule:nonzero;stroke:none"
         d="m 4968.64,1362.82 h 356.53 v -37.2 h -356.53 v 37.2" /><path
         id="path132"
         style="fill:#283876;fill-opacity:1;fill-rule:nonzero;stroke:none"
         d="m 4968.64,1288.41 h 356.53 v -37.21 h -356.53 v 37.21" /><path
         id="path134"
         style="fill:#283876;fill-opacity:1;fill-rule:nonzero;stroke:none"
         d="m 4968.64,1213.99 h 356.53 v -37.2 h -356.53 v 37.2" /><path
         id="path136"
         style="fill:#ffffff;fill-opacity:1;fill-rule:nonzero;stroke:none"
         d="m 4359.15,1307.01 c 0,76.72 62.18,138.91 138.9,138.91 76.72,0 138.91,-62.19 138.91,-138.91 0,-76.72 -62.19,-138.9 -138.91,-138.9 -76.72,0 -138.9,62.18 -138.9,138.9" /><path
         id="path138"
         style="fill:#283876;fill-opacity:1;fill-rule:nonzero;stroke:none"
         d="m 4379.19,1307.01 c 0,65.65 53.22,118.86 118.86,118.86 65.65,0 118.86,-53.21 118.86,-118.86 0,-65.64 -53.21,-118.86 -118.86,-118.86 -65.64,0 -118.86,53.22 -118.86,118.86" /><path
         id="path140"
         style="fill:#202b56;fill-opacity:1;fill-rule:nonzero;stroke:none"
         d="m 4442.24,1307.01 c 0,30.82 24.99,55.81 55.81,55.81 30.83,0 55.81,-24.99 55.81,-55.81 0,-30.82 -24.98,-55.81 -55.81,-55.81 -30.82,0 -55.81,24.99 -55.81,55.81" /><path
         id="path142"
         style="fill:#fccc17;fill-opacity:1;fill-rule:nonzero;stroke:none"
         d="m 4430.82,1068.26 h -123.46 v 22.33 h 123.46 v -22.33" /><path
         id="path144"
         style="fill:#fccc17;fill-opacity:1;fill-rule:nonzero;stroke:none"
         d="m 4634.91,1068.26 h -123.45 v 22.33 h 123.45 v -22.33" /><path
         id="path146"
         style="fill:#344aa6;fill-opacity:1;fill-rule:nonzero;stroke:none"
         d="m 4839,1068.26 h -123.45 v 22.33 H 4839 v -22.33" /><path
         id="path148"
         style="fill:#344aa6;fill-opacity:1;fill-rule:nonzero;stroke:none"
         d="m 5043.09,1068.26 h -123.45 v 22.33 h 123.45 v -22.33" /><path
         id="path150"
         style="fill:#344aa6;fill-opacity:1;fill-rule:nonzero;stroke:none"
         d="m 5247.18,1068.26 h -123.45 v 22.33 h 123.45 v -22.33" /><path
         id="path152"
         style="fill:#344aa6;fill-opacity:1;fill-rule:nonzero;stroke:none"
         d="m 5451.27,1068.26 h -123.45 v 22.33 h 123.45 v -22.33" /><path
         id="path154"
         style="fill:#ffffff;fill-opacity:1;fill-rule:nonzero;stroke:none"
         d="m 4362.21,2319.47 c -40.71,40.72 -63.12,94.85 -63.12,152.41 0,60.87 25.93,119.19 71.14,160.01 l 14.75,-16.33 c -40.6,-36.66 -63.89,-89.03 -63.89,-143.68 0,-51.68 20.14,-100.29 56.69,-136.84 l -15.57,-15.57" /><path
         id="path156"
         style="fill:#ffffff;fill-opacity:1;fill-rule:nonzero;stroke:none"
         d="m 4428.52,2385.78 c -23,23 -35.66,53.59 -35.66,86.1 0,34.29 14.68,67.2 40.27,90.31 l 5.91,-6.53 c -23.75,-21.45 -37.37,-51.98 -37.37,-83.78 0,-30.17 11.74,-58.53 33.08,-79.88 l -6.23,-6.22" /><path
         id="path158"
         style="fill:#ffffff;fill-opacity:1;fill-rule:nonzero;stroke:none"
         d="m 4396.61,2353.87 c -31.53,31.52 -48.89,73.43 -48.89,118.01 0,46.99 20.12,92.1 55.2,123.78 l 11.81,-13.06 c -31.4,-28.35 -49.4,-68.7 -49.4,-110.72 0,-39.88 15.53,-77.37 43.73,-105.57 l -12.45,-12.44" /><path
         id="path160"
         style="fill:#ffffff;fill-opacity:1;fill-rule:nonzero;stroke:none"
         d="m 4425.42,2382.68 c -23.84,23.82 -36.96,55.5 -36.96,89.2 0,35.53 15.21,69.63 41.73,93.58 l 11.8,-13.07 c -22.83,-20.61 -35.93,-49.95 -35.93,-80.51 0,-28.99 11.29,-56.26 31.8,-76.76 l -12.44,-12.44" /><path
         id="path162"
         style="fill:#ffffff;fill-opacity:1;fill-rule:nonzero;stroke:none"
         d="m 4628.78,2319.47 -15.55,15.57 c 36.55,36.55 56.68,85.15 56.68,136.84 0,54.65 -23.29,107.02 -63.88,143.68 l 14.74,16.33 c 45.21,-40.82 71.15,-99.14 71.15,-160.01 0,-57.57 -22.42,-111.69 -63.14,-152.41" /><path
         id="path164"
         style="fill:#ffffff;fill-opacity:1;fill-rule:nonzero;stroke:none"
         d="m 4562.48,2385.78 -6.23,6.22 c 21.33,21.34 33.09,49.71 33.09,79.88 0,31.8 -13.62,62.32 -37.37,83.78 l 5.9,6.53 c 25.6,-23.12 40.27,-56.03 40.27,-90.31 0,-32.51 -12.67,-63.1 -35.66,-86.1" /><path
         id="path166"
         style="fill:#ffffff;fill-opacity:1;fill-rule:nonzero;stroke:none"
         d="m 4594.39,2353.87 -12.45,12.44 c 28.21,28.2 43.73,65.69 43.73,105.57 0,42.02 -18,82.37 -49.4,110.71 l 11.8,13.07 c 35.09,-31.68 55.21,-76.79 55.21,-123.78 0,-44.58 -17.36,-86.49 -48.89,-118.01" /><path
         id="path168"
         style="fill:#ffffff;fill-opacity:1;fill-rule:nonzero;stroke:none"
         d="m 4565.58,2382.68 -12.45,12.44 c 20.51,20.5 31.81,47.77 31.81,76.76 0,30.55 -13.09,59.89 -35.93,80.51 l 11.81,13.06 c 26.51,-23.94 41.72,-58.05 41.72,-93.57 0,-33.7 -13.13,-65.38 -36.96,-89.2" /><path
         id="path170"
         style="fill:#ffffff;fill-opacity:1;fill-rule:nonzero;stroke:none"
         d="m 4495.5,2441.39 c -18.83,0 -34.11,15.26 -34.11,34.1 0,18.84 15.28,34.11 34.11,34.11 18.84,0 34.1,-15.27 34.1,-34.11 0,-18.84 -15.26,-34.1 -34.1,-34.1" /><path
         id="path172"
         style="fill:#ffffff;fill-opacity:1;fill-rule:nonzero;stroke:none"
         d="m 4526.37,2115.18 h -61.75 l 19.88,360.31 h 22 l 19.87,-360.31" /><path
         id="path174"
         style="fill:#25b5a6;fill-opacity:1;fill-rule:nonzero;stroke:none"
         d="m 6619.41,1282.41 c -8.97,61.21 -99.34,45.05 -143.14,36.17 -109.11,-22.12 -197.46,-84.03 -273.39,-160.88 l 197.48,286.25 c 26.34,38.17 52.68,76.34 79.02,114.52 19.77,28.66 50.75,62.75 51.35,100.02 0.78,49.32 -49.46,73.56 -93.09,66.95 -61.38,-9.29 -120.7,-63.18 -162.68,-106.09 -51.75,-52.89 -92.97,-115.78 -124.59,-182.48 -61.99,-130.79 -75.44,-192.33 -92.23,-335.21 -12.99,76.83 -78.39,239.1 -139.24,206.39 -99.4,-53.45 113.35,-375.12 113.35,-375.12 h 132.99 c 0,0 474.26,212.5 454.17,349.48" /><path
         id="path176"
         style="fill:#25b5a6;fill-opacity:1;fill-rule:nonzero;stroke:none"
         d="m 990.387,1131.91 c 5.109,34.85 56.563,25.65 81.493,20.6 62.13,-12.6 112.43,-47.85 155.66,-91.6 l -112.43,162.97 c -15,21.74 -29.99,43.47 -44.99,65.21 -11.26,16.32 -28.9,35.72 -29.24,56.95 -0.45,28.08 28.16,41.88 53,38.12 34.95,-5.29 68.72,-35.98 92.63,-60.41 29.46,-30.11 52.93,-65.92 70.93,-103.9 35.29,-74.46 42.96,-109.5 52.51,-190.85 7.4,43.73 44.63,136.14 79.28,117.5 56.6,-30.43 -64.53,-213.57 -64.53,-213.57 h -75.73 c 0,0 -270.021,121 -258.583,198.98" /><path
         id="path178"
         style="fill:#25b5a6;fill-opacity:1;fill-rule:nonzero;stroke:none"
         d="M 6620.03,844.129 H 990.035 v 95.203 H 6620.03 v -95.203" /><path
         id="path180"
         style="fill:#25b5a6;fill-opacity:1;fill-rule:nonzero;stroke:none"
         d="m 3048.91,3517.19 h -397.79 v 96.66 h 397.79 v -96.66" /><path
         id="path182"
         style="fill:#25b5a6;fill-opacity:1;fill-rule:nonzero;stroke:none"
         d="m 3575.28,3517.19 h -397.79 v 96.66 h 397.79 v -96.66" /><path
         id="path184"
         style="fill:#25b5a6;fill-opacity:1;fill-rule:nonzero;stroke:none"
         d="m 4101.66,3517.19 h -397.79 v 96.66 h 397.79 v -96.66" /><path
         id="path186"
         style="fill:#25b5a6;fill-opacity:1;fill-rule:nonzero;stroke:none"
         d="m 4628.03,3517.19 h -397.79 v 96.66 h 397.79 v -96.66" /><path
         id="path188"
         style="fill:#25b5a6;fill-opacity:1;fill-rule:nonzero;stroke:none"
         d="m 5154.4,3517.19 h -397.78 v 96.66 h 397.78 v -96.66" /><path
         id="path190"
         style="fill:#fccc17;fill-opacity:1;fill-rule:nonzero;stroke:none"
         d="m 5481.88,3517.19 h -198.89 v 96.66 h 198.89 v -96.66" /><path
         id="path192"
         style="fill:#25b5a6;fill-opacity:1;fill-rule:nonzero;stroke:none"
         d="m 6016.11,2991.52 h -950 l -56.52,-206.62 1.77,547.35 h 1004.75 v -340.73" /><path
         id="path194"
         style="fill:#ffffff;fill-opacity:1;fill-rule:nonzero;stroke:none"
         d="M 5936.07,3224.9 H 5295 v 31.79 h 641.07 v -31.79" /><path
         id="path196"
         style="fill:#ffffff;fill-opacity:1;fill-rule:nonzero;stroke:none"
         d="M 5936.07,3158.67 H 5295 v 31.79 h 641.07 v -31.79" /><path
         id="path198"
         style="fill:#ffffff;fill-opacity:1;fill-rule:nonzero;stroke:none"
         d="M 5537.77,3092.45 H 5295 v 31.78 h 242.77 v -31.78" /><path
         id="path200"
         style="fill:#ffffff;fill-opacity:1;fill-rule:nonzero;stroke:none"
         d="m 5074.33,3168.09 c 0,46.81 37.95,84.76 84.77,84.76 46.81,0 84.77,-37.95 84.77,-84.76 0,-46.82 -37.96,-84.77 -84.77,-84.77 -46.82,0 -84.77,37.95 -84.77,84.77" /><path
         id="path202"
         style="fill:#ffffff;fill-opacity:1;fill-rule:nonzero;stroke:none"
         d="m 5649.85,3140.54 8.11,-24.95 h 26.24 l -21.23,-15.43 8.11,-24.96 -21.23,15.42 -21.23,-15.42 8.11,24.96 -21.23,15.43 h 26.24 l 8.11,24.95" /><path
         id="path204"
         style="fill:#283876;fill-opacity:1;fill-rule:nonzero;stroke:none"
         d="m 5728.93,3140.54 8.11,-24.95 h 26.24 l -21.23,-15.43 8.11,-24.96 -21.23,15.42 -21.23,-15.42 8.11,24.96 -21.23,15.43 h 26.24 l 8.11,24.95" /><path
         id="path206"
         style="fill:#283876;fill-opacity:1;fill-rule:nonzero;stroke:none"
         d="m 5808.01,3140.54 8.11,-24.95 h 26.24 l -21.23,-15.43 8.11,-24.96 -21.23,15.42 -21.23,-15.42 8.11,24.96 -21.23,15.43 h 26.24 l 8.11,24.95" /><path
         id="path208"
         style="fill:#283876;fill-opacity:1;fill-rule:nonzero;stroke:none"
         d="m 5887.09,3140.54 8.11,-24.95 h 26.24 l -21.23,-15.43 8.11,-24.96 -21.23,15.42 -21.23,-15.42 8.11,24.96 -21.23,15.43 h 26.24 l 8.11,24.95" /><path
         id="path210"
         style="fill:#25b5a6;fill-opacity:1;fill-rule:nonzero;stroke:none"
         d="m 6187.3,2515.76 h -950 l -56.51,-206.63 1.76,547.35 H 6187.3 v -340.72" /><path
         id="path212"
         style="fill:#ffffff;fill-opacity:1;fill-rule:nonzero;stroke:none"
         d="M 6107.27,2749.13 H 5466.2 v 31.79 h 641.07 v -31.79" /><path
         id="path214"
         style="fill:#ffffff;fill-opacity:1;fill-rule:nonzero;stroke:none"
         d="M 6107.27,2682.91 H 5466.2 v 31.79 h 641.07 v -31.79" /><path
         id="path216"
         style="fill:#ffffff;fill-opacity:1;fill-rule:nonzero;stroke:none"
         d="M 5708.96,2616.68 H 5466.2 v 31.79 h 242.76 v -31.79" /><path
         id="path218"
         style="fill:#ffffff;fill-opacity:1;fill-rule:nonzero;stroke:none"
         d="m 5245.52,2692.32 c 0,46.82 37.95,84.77 84.77,84.77 46.81,0 84.77,-37.95 84.77,-84.77 0,-46.82 -37.96,-84.77 -84.77,-84.77 -46.82,0 -84.77,37.95 -84.77,84.77" /><path
         id="path220"
         style="fill:#ffffff;fill-opacity:1;fill-rule:nonzero;stroke:none"
         d="m 5821.04,2664.78 8.11,-24.96 h 26.25 l -21.23,-15.43 8.11,-24.96 -21.24,15.43 -21.23,-15.43 8.11,24.96 -21.23,15.43 h 26.24 l 8.11,24.96" /><path
         id="path222"
         style="fill:#283876;fill-opacity:1;fill-rule:nonzero;stroke:none"
         d="m 5900.12,2664.78 8.11,-24.96 h 26.24 l -21.23,-15.43 8.11,-24.96 -21.23,15.43 -21.23,-15.43 8.11,24.96 -21.23,15.43 h 26.24 l 8.11,24.96" /><path
         id="path224"
         style="fill:#283876;fill-opacity:1;fill-rule:nonzero;stroke:none"
         d="m 5979.2,2664.78 8.11,-24.96 h 26.24 l -21.23,-15.43 8.11,-24.96 -21.23,15.43 -21.23,-15.43 8.11,24.96 -21.23,15.43 h 26.24 l 8.11,24.96" /><path
         id="path226"
         style="fill:#283876;fill-opacity:1;fill-rule:nonzero;stroke:none"
         d="m 6058.28,2664.78 8.11,-24.96 h 26.24 l -21.23,-15.43 8.11,-24.96 -21.23,15.43 -21.23,-15.43 8.11,24.96 -21.23,15.43 h 26.24 l 8.11,24.96" /><path
         id="path228"
         style="fill:#526fbf;fill-opacity:1;fill-rule:nonzero;stroke:none"
         d="m 4306.57,3003.6 c 0,104.34 84.58,188.93 188.93,188.93 104.34,0 188.93,-84.59 188.93,-188.93 0,-104.35 -84.59,-188.93 -188.93,-188.93 -104.35,0 -188.93,84.58 -188.93,188.93 z m 236.45,-349.26 v 41.83 c 22.59,3.47 44.38,9.27 65.1,17.33 l 20.85,-36.13 c 2.68,-4.63 8.6,-6.22 13.23,-3.55 l 65.53,37.84 c 4.64,2.68 6.23,8.6 3.55,13.23 l -20.82,36.06 c 17.57,14.13 33.55,30.11 47.69,47.68 l 36.06,-20.82 c 4.63,-2.67 10.55,-1.08 13.22,3.55 l 37.84,65.53 c 2.67,4.63 1.09,10.56 -3.55,13.23 l -36.12,20.86 c 8.05,20.72 13.85,42.5 17.32,65.1 h 41.84 c 5.35,0 9.68,4.34 9.68,9.68 v 75.67 c 0,5.35 -4.33,9.68 -9.68,9.68 h -41.84 c -3.47,22.6 -9.27,44.38 -17.32,65.11 l 36.12,20.86 c 4.64,2.67 6.22,8.59 3.55,13.22 l -37.84,65.53 c -2.67,4.63 -8.59,6.22 -13.22,3.55 l -36.06,-20.82 c -14.14,17.57 -30.12,33.55 -47.69,47.69 l 20.82,36.05 c 2.68,4.64 1.09,10.56 -3.55,13.23 l -65.53,37.84 c -4.63,2.67 -10.55,1.08 -13.23,-3.55 l -20.85,-36.12 c -20.72,8.05 -42.5,13.85 -65.1,17.32 v 41.84 c 0,5.34 -4.34,9.68 -9.69,9.68 h -75.67 c -5.35,0 -9.68,-4.34 -9.68,-9.68 v -41.84 c -22.59,-3.47 -44.38,-9.27 -65.1,-17.32 l -20.86,36.12 c -2.67,4.63 -8.6,6.22 -13.23,3.55 l -65.53,-37.84 c -4.63,-2.67 -6.21,-8.59 -3.54,-13.23 l 20.81,-36.05 c -17.57,-14.14 -33.55,-30.12 -47.68,-47.69 l -36.06,20.82 c -4.63,2.67 -10.55,1.08 -13.23,-3.55 l -37.83,-65.53 c -2.67,-4.63 -1.09,-10.55 3.54,-13.22 l 36.13,-20.86 c -8.05,-20.73 -13.86,-42.51 -17.32,-65.11 h -41.84 c -5.35,0 -9.68,-4.33 -9.68,-9.68 v -75.67 c 0,-5.34 4.33,-9.68 9.68,-9.68 h 41.84 c 3.46,-22.6 9.27,-44.38 17.32,-65.1 l -36.13,-20.86 c -4.63,-2.67 -6.21,-8.6 -3.54,-13.23 l 37.83,-65.53 c 2.68,-4.63 8.6,-6.22 13.23,-3.55 l 36.06,20.82 c 14.13,-17.57 30.11,-33.55 47.68,-47.68 l -20.81,-36.06 c -2.67,-4.63 -1.09,-10.55 3.54,-13.23 l 65.53,-37.84 c 4.63,-2.67 10.56,-1.08 13.23,3.55 l 20.86,36.13 c 20.72,-8.06 42.51,-13.86 65.1,-17.33 v -41.83 c 0,-5.35 4.33,-9.69 9.68,-9.69 h 75.67 c 5.35,0 9.69,4.34 9.69,9.69" /><path
         id="path230"
         style="fill:#526fbf;fill-opacity:1;fill-rule:nonzero;stroke:none"
         d="m 4495.5,3035.12 c 17.41,0 31.52,-14.11 31.52,-31.52 0,-17.41 -14.11,-31.53 -31.52,-31.53 -17.41,0 -31.53,14.12 -31.53,31.53 0,17.41 14.12,31.52 31.53,31.52" /><path
         id="path232"
         style="fill:#526fbf;fill-opacity:1;fill-rule:nonzero;stroke:none"
         d="m 3781.22,2775.25 c 0,63.67 51.62,115.29 115.29,115.29 63.67,0 115.29,-51.62 115.29,-115.29 0,-63.67 -51.62,-115.29 -115.29,-115.29 -63.67,0 -115.29,51.62 -115.29,115.29 z m 144.28,-213.13 v 25.53 c 13.79,2.12 27.09,5.66 39.73,10.57 l 12.73,-22.04 c 1.63,-2.83 5.24,-3.8 8.07,-2.17 l 39.99,23.09 c 2.83,1.64 3.79,5.25 2.16,8.08 l -12.7,22 c 10.72,8.63 20.47,18.38 29.1,29.1 l 22,-12.71 c 2.83,-1.63 6.44,-0.66 8.07,2.17 l 23.09,39.99 c 1.64,2.82 0.66,6.43 -2.16,8.07 l -22.04,12.73 c 4.91,12.64 8.45,25.93 10.57,39.72 h 25.52 c 3.27,0 5.91,2.65 5.91,5.91 v 46.17 c 0,3.27 -2.64,5.91 -5.91,5.91 h -25.52 c -2.12,13.79 -5.66,27.09 -10.57,39.73 l 22.04,12.73 c 2.82,1.63 3.8,5.24 2.16,8.07 l -23.09,39.99 c -1.63,2.83 -5.24,3.79 -8.07,2.16 l -22,-12.7 c -8.62,10.72 -18.38,20.47 -29.1,29.1 l 12.7,22 c 1.63,2.83 0.67,6.44 -2.16,8.07 l -39.99,23.09 c -2.83,1.64 -6.44,0.66 -8.07,-2.16 l -12.73,-22.04 c -12.64,4.91 -25.93,8.45 -39.73,10.57 v 25.52 c 0,3.27 -2.64,5.91 -5.9,5.91 h -46.18 c -3.26,0 -5.91,-2.64 -5.91,-5.91 v -25.52 c -13.78,-2.12 -27.08,-5.66 -39.72,-10.57 l -12.73,22.04 c -1.63,2.82 -5.25,3.8 -8.07,2.16 L 3767,2953.39 c -2.83,-1.63 -3.8,-5.24 -2.17,-8.07 l 12.71,-22 c -10.72,-8.63 -20.47,-18.38 -29.1,-29.1 l -22,12.7 c -2.83,1.63 -6.44,0.67 -8.08,-2.16 l -23.09,-39.99 c -1.63,-2.83 -0.66,-6.44 2.17,-8.07 l 22.04,-12.73 c -4.91,-12.64 -8.45,-25.94 -10.57,-39.73 h -25.53 c -3.26,0 -5.9,-2.64 -5.9,-5.91 v -46.17 c 0,-3.26 2.64,-5.91 5.9,-5.91 h 25.53 c 2.12,-13.79 5.66,-27.08 10.57,-39.73 l -22.04,-12.72 c -2.83,-1.64 -3.8,-5.25 -2.17,-8.07 l 23.09,-39.99 c 1.64,-2.83 5.25,-3.8 8.08,-2.17 l 22,12.7 c 8.63,-10.71 18.38,-20.47 29.1,-29.09 l -12.71,-22 c -1.63,-2.83 -0.66,-6.44 2.17,-8.08 l 39.99,-23.09 c 2.82,-1.63 6.44,-0.66 8.07,2.17 l 12.73,22.04 c 12.64,-4.91 25.94,-8.45 39.72,-10.57 v -25.53 c 0,-3.26 2.65,-5.9 5.91,-5.9 h 46.18 c 3.26,0 5.9,2.64 5.9,5.9" /><path
         id="path234"
         style="fill:#526fbf;fill-opacity:1;fill-rule:nonzero;stroke:none"
         d="m 3913.92,2775.25 c 0,-9.62 -7.79,-17.41 -17.41,-17.41 -9.62,0 -17.41,7.79 -17.41,17.41 0,9.62 7.79,17.41 17.41,17.41 9.62,0 17.41,-7.79 17.41,-17.41" /><path
         id="path236"
         style="fill:#526fbf;fill-opacity:1;fill-rule:nonzero;stroke:none"
         d="m 3721.7,2382.68 h 430.97 V 1862.59 H 3721.7 v 520.09" /><path
         id="path238"
         style="fill:#f68923;fill-opacity:1;fill-rule:nonzero;stroke:none"
         d="m 3779.29,2306.62 c 0,13.5 10.94,24.43 24.44,24.43 13.49,0 24.43,-10.93 24.43,-24.43 0,-13.5 -10.94,-24.44 -24.43,-24.44 -13.5,0 -24.44,10.94 -24.44,24.44" /><path
         id="path240"
         style="fill:#ffffff;fill-opacity:1;fill-rule:nonzero;stroke:none"
         d="M 4095.08,2285.23 H 3853.8 V 2328 h 241.28 v -42.77" /><path
         id="path242"
         style="fill:#fbcb38;fill-opacity:1;fill-rule:nonzero;stroke:none"
         d="m 3779.29,2205.92 c 0,13.49 10.94,24.44 24.44,24.44 13.49,0 24.43,-10.95 24.43,-24.44 0,-13.5 -10.94,-24.44 -24.43,-24.44 -13.5,0 -24.44,10.94 -24.44,24.44" /><path
         id="path244"
         style="fill:#ffffff;fill-opacity:1;fill-rule:nonzero;stroke:none"
         d="M 4095.08,2184.54 H 3853.8 v 42.76 h 241.28 v -42.76" /><path
         id="path246"
         style="fill:#f68923;fill-opacity:1;fill-rule:nonzero;stroke:none"
         d="m 3779.29,2039.34 c 0,13.49 10.94,24.44 24.44,24.44 13.49,0 24.43,-10.95 24.43,-24.44 0,-13.5 -10.94,-24.45 -24.43,-24.45 -13.5,0 -24.44,10.95 -24.44,24.45" /><path
         id="path248"
         style="fill:#ffffff;fill-opacity:1;fill-rule:nonzero;stroke:none"
         d="M 4095.08,2017.96 H 3853.8 v 42.76 h 241.28 v -42.76" /><path
         id="path250"
         style="fill:#ffffff;fill-opacity:1;fill-rule:nonzero;stroke:none"
         d="m 3779.29,1938.64 c 0,13.5 10.94,24.44 24.44,24.44 13.49,0 24.43,-10.94 24.43,-24.44 0,-13.5 -10.94,-24.44 -24.43,-24.44 -13.5,0 -24.44,10.94 -24.44,24.44" /><path
         id="path252"
         style="fill:#ffffff;fill-opacity:1;fill-rule:nonzero;stroke:none"
         d="M 4095.08,1917.26 H 3853.8 v 42.76 h 241.28 v -42.76" /><path
         id="path254"
         style="fill:#ffffff;fill-opacity:1;fill-rule:nonzero;stroke:none"
         d="m 3721.7,2117.36 h 430.973 v 6.6719 H 3721.7 Z" /><path
         id="path256"
         style="fill:#283876;fill-opacity:1;fill-rule:nonzero;stroke:none"
         d="m 3575.28,2816.55 h -397.79 v 397.79 h 397.79 v -397.79" /><path
         id="path258"
         style="fill:#25b5a6;fill-opacity:1;fill-rule:nonzero;stroke:none"
         d="m 3575.28,2816.55 h -397.79 l 164.67,194.93 94.53,-107.39 138.59,154.48 v -242.02" /><path
         id="path260"
         style="fill:#fccc17;fill-opacity:1;fill-rule:nonzero;stroke:none"
         d="m 3231.85,3100.52 c 0,32.45 26.3,58.75 58.75,58.75 32.45,0 58.75,-26.3 58.75,-58.75 0,-32.44 -26.3,-58.75 -58.75,-58.75 -32.45,0 -58.75,26.31 -58.75,58.75" /><path
         id="path262"
         style="fill:#ffffff;fill-opacity:1;fill-rule:nonzero;stroke:none"
         d="m 3575.28,2309.82 h -397.79 v 397.8 h 397.79 v -397.8" /><path
         id="path264"
         style="fill:#25b5a6;fill-opacity:1;fill-rule:nonzero;stroke:none"
         d="m 3575.28,1803.11 h -397.79 v 397.78 h 397.79 v -397.78" /><path
         id="path266"
         style="fill:#344aa6;fill-opacity:1;fill-rule:nonzero;stroke:none"
         d="m 3048.91,3214.34 h -397.79 v -397.79 h 397.79 z m -10,-10 v -377.79 h -377.79 v 377.79 h 377.79" /><path
         id="path268"
         style="fill:#fccc17;fill-opacity:1;fill-rule:nonzero;stroke:none"
         d="m 3048.91,2309.82 h -397.79 v 397.8 h 397.79 v -397.8" /><path
         id="path270"
         style="fill:#ffffff;fill-opacity:1;fill-rule:nonzero;stroke:none"
         d="m 3048.91,1803.11 h -397.79 v 397.78 h 397.79 v -397.78" /><path
         id="path272"
         style="fill:#e4f6f8;fill-opacity:1;fill-rule:nonzero;stroke:none"
         d="m 3525.57,3122.77 40.3,-119.31 32.03,32.03 41.11,-41.12 14.96,14.97 -41.11,41.11 32.02,32.03 -119.31,40.29" /><path
         id="path274"
         style="fill:#202b56;fill-opacity:1;fill-rule:nonzero;stroke:none"
         d="m 3729.23,1660.52 -0.18,1.6 c -1.79,8.8 -5.63,17.06 -10.9,24.31 -16.46,22.67 -48.67,32.07 -53.72,62.18 -1.35,8.05 -2.19,16.18 -3.23,24.28 h 1.11 c -2.09,20.45 -9.36,40.65 -22.05,57.92 -4.87,7.35 -11.02,14.02 -17.13,21.09 -10.41,12.06 -10.02,23.64 -5.82,38.4 2.9,10.18 4.94,19.11 2.78,29.77 -1.79,8.79 -5.63,17.05 -10.89,24.3 -16.47,22.67 -48.67,32.07 -53.73,62.18 -2.56,15.28 -3.2,30.84 -7.1,45.89 -4.56,17.68 -14.22,31.92 -28.85,42.83 -20.11,15.01 -44.26,23.76 -69.21,27.36 v -349.74 l 47.47,-112.37 h 231.45" /><path
         id="path276"
         style="fill:#f68c68;fill-opacity:1;fill-rule:nonzero;stroke:none"
         d="m 3978.65,1687 0.51,1.9 c 30.67,-0.85 61.45,0.63 92.01,4.59 3.94,-23.77 0.84,-49.02 -11.62,-67.54 -28.05,-4.11 -56.32,-6.07 -84.55,-6.15 -1.25,6.89 -0.05,52.1 3.65,67.2" /><path
         id="path278"
         style="fill:#f68c68;fill-opacity:1;fill-rule:nonzero;stroke:none"
         d="m 4109.36,1707.35 c 7.49,-5.6 10.37,-16.03 15.57,-24.38 2.66,-4.27 6.3,-9.53 4.96,-14.86 -1.26,-5.05 -6.31,-6.91 -11.04,-5.91 -5.68,1.2 -9.98,5.48 -12.37,10.75 1.3,-14.46 2.45,-29.16 0.44,-43.58 -1.3,-9.41 -1.65,-19.04 -12.06,-20.82 -9.8,-1.67 -28.21,0.22 -36.73,6.08 -10.45,7.18 -11.48,22.66 -11.99,34.07 -1.03,23.49 4.46,51.19 29.27,59.91 7.94,2.81 16.95,3.8 25.28,2.39 3.49,-0.6 6.31,-1.89 8.67,-3.65" /><path
         id="path280"
         style="fill:#f68c68;fill-opacity:1;fill-rule:nonzero;stroke:none"
         d="m 4081.1,1704.46 42.32,-1.85 c 38.83,-1.49 26.55,-96.52 -17.26,-95.47 l -28.37,1.25 c -6.82,0.29 -12.1,6.06 -11.8,12.88 0.25,5.67 4.3,10.23 9.58,11.44 -5.31,1.59 -9.1,6.58 -8.84,12.36 0.25,5.67 4.31,10.23 9.58,11.44 -5.31,1.59 -9.09,6.58 -8.83,12.36 0.24,5.67 4.3,10.23 9.58,11.44 -5.31,1.57 -9.09,6.57 -8.84,12.36 0.3,6.81 6.07,12.1 12.88,11.79" /><path
         id="path282"
         style="fill:#ffffff;fill-opacity:1;fill-rule:nonzero;stroke:none"
         d="m 4266.51,1649.29 -181.66,-1.87 -0.41,40 181.66,1.87 0.41,-40" /><path
         id="path284"
         style="fill:#f68c68;fill-opacity:1;fill-rule:nonzero;stroke:none"
         d="m 4100.69,1711 c 3.49,-0.6 6.31,-1.89 8.67,-3.65 7.49,-5.6 10.37,-16.03 15.57,-24.38 2.66,-4.27 6.3,-9.53 4.96,-14.86 -1.26,-5.05 -6.31,-6.91 -11.04,-5.91 -6.09,1.28 -9.83,6.7 -13.75,11.02 -3.51,3.88 -12.19,10.5 -27.32,6.97 -13.81,-3.23 -30.48,-16.23 -31.72,-28.45 -0.43,22.78 5.6,48.52 29.35,56.87 7.94,2.81 16.95,3.8 25.28,2.39" /><path
         id="path286"
         style="fill:#f1bc0b;fill-opacity:1;fill-rule:nonzero;stroke:none"
         d="m 3474.12,1753.59 c 63.33,3.58 466.07,-55.72 540.78,-44.89 17.07,-33.18 18.53,-69.97 4.23,-105.59 -43.44,-5.26 -454.23,26.62 -468.88,25.67 l -76.13,124.81" /><path
         id="path288"
         style="fill:#f1bc0b;fill-opacity:1;fill-rule:nonzero;stroke:none"
         d="m 3415.05,1775.4 h 11.02 c 2.9,0 5.81,-0.08 8.69,-0.23 70.91,-3.8 126.16,-70.87 130.78,-141.07 0.35,-5.22 45.31,-465.58 45.31,-465.58 h -391.62 l 44.27,465.58 c 2.35,78.58 63.56,137.21 143.61,141.1 2.64,0.13 5.29,0.2 7.94,0.2" /><path
         id="path290"
         style="fill:#f68c68;fill-opacity:1;fill-rule:nonzero;stroke:none"
         d="m 3324.34,2000.51 c 0,66.34 53.14,120.25 119.17,121.51 68.13,1.31 123.91,-55.75 123.91,-123.91 0,-24.08 0,-52.56 0,-80.09 0,-61.59 -49.92,-111.49 -111.5,-111.49 h -4.53 v -43.56 c 0,-30.34 -24.6,-54.94 -54.93,-54.94 h -0.01 c -30.34,0 -54.94,24.6 -54.94,54.94 v 74.13 c 0,45.65 -3.68,91.39 -14.02,135.84 -2.06,8.86 -3.15,18.09 -3.15,27.57" /><path
         id="path292"
         style="fill:#202b56;fill-opacity:1;fill-rule:nonzero;stroke:none"
         d="m 3339.3,1655.52 48.28,110.05 v 207.25 c 3.33,0.06 5.28,0.11 5.33,0.15 l 184.34,-0.16 v 25.32 c 0,63.76 -45.04,121.83 -107.77,135.4 -58.46,12.65 -147.81,-5.52 -174.7,-65.41 -14.91,-33.2 -5.88,-73.32 -35.9,-98.58 -17.61,-14.81 -36.19,-27.67 -41.08,-51.74 -2.16,-10.64 -0.12,-19.58 2.78,-29.76 4.2,-14.76 4.59,-26.34 -5.82,-38.39 -6.11,-7.07 -12.26,-13.74 -17.13,-21.1 -0.97,-1.31 -1.66,-2.77 -2.56,-4.11 -7.22,-8.61 -12.55,-18.47 -15.52,-29.94 -3.89,-15.05 -4.53,-30.61 -7.09,-45.89 -5.06,-30.11 -37.26,-39.51 -53.73,-62.18 -5.26,-7.25 -9.1,-15.51 -10.89,-24.31 -0.46,-2.28 -0.65,-4.44 -0.76,-6.6 h 232.22" /><path
         id="path294"
         style="fill:#ffffff;fill-opacity:1;fill-rule:nonzero;stroke:none"
         d="m 3349.58,1749.32 h 85.69 l -25.31,155.82 h -85.71 l 25.33,-155.82" /><path
         id="path296"
         style="fill:#f68c68;fill-opacity:1;fill-rule:nonzero;stroke:none"
         d="m 3335.41,1836.44 c 0,0 7.99,-18.65 15.72,-18.42 30.05,0.9 67.76,34.2 67.76,34.2 7.57,2.44 41.9,-51.93 7.51,-81.31 -0.25,-25.21 -2.06,-59.65 -5.46,-84.55 -6.99,-0.27 -51.61,7.18 -66.05,12.93 l -1.8,0.77 c 4.18,24.86 6.71,50.03 7.7,75.3 l -0.72,0.6 -1.59,1.46 -1.49,1.42 -0.42,0.48 c -7.48,5.91 -15.23,12.53 -20.55,20.21 -6.05,8.73 -5.15,17.37 -7.03,27.7 -0.75,4.18 2.24,9.98 6.42,9.21" /><path
         id="path298"
         style="fill:#fccc17;fill-opacity:1;fill-rule:nonzero;stroke:none"
         d="m 3262.39,1665.66 c 5.85,34.9 43.17,54.82 75.54,40.54 1.93,-0.86 3.72,-1.9 5.51,-2.96 1.05,12.58 2.03,24.79 2.94,36.35 36.13,9.33 72.34,2.64 103.93,-19.17 -10.91,-106.53 -9.59,-298.75 -63.53,-358.45 l -0.07,-0.06 c -21.84,-47.78 -69.92,-23.75 -89.61,9.86 -51.82,71.74 -52.35,188.74 -34.71,293.89" /><path
         id="path300"
         style="fill:#f9e850;fill-opacity:1;fill-rule:nonzero;stroke:none"
         d="m 3313.73,1436.68 c -1.84,3.66 -3.58,7.37 -5.16,11.14 16.02,28.6 30.41,186.13 38.71,291.77 0,0 13.95,-232.95 -33.55,-302.91" /><path
         id="path302"
         style="fill:#17203b;fill-opacity:1;fill-rule:nonzero;stroke:none"
         d="m 3845.58,938.582 -108,2.957 c -26.38,0.731 -45.61,17.051 -44.89,43.43 0.72,26.391 22.55,42.021 48.93,41.301 l 99.81,-3.6 c 26.37,-0.73 53.36,-16.83 52.64,-43.221 -0.73,-26.367 -22.11,-41.59 -48.49,-40.867" /><path
         id="path304"
         style="fill:#17203b;fill-opacity:1;fill-rule:nonzero;stroke:none"
         d="m 3774.05,1010.3 c 0.09,3.01 2.59,5.39 5.6,5.31 3.01,-0.08 5.39,-2.59 5.31,-5.6 -0.09,-3.02 -2.6,-5.39 -5.6,-5.3 -3.02,0.08 -5.39,2.58 -5.31,5.59" /><path
         id="path306"
         style="fill:#17203b;fill-opacity:1;fill-rule:nonzero;stroke:none"
         d="m 3796.71,1009.69 c 0.09,3.01 2.6,5.38 5.6,5.29 3.02,-0.08 5.39,-2.59 5.31,-5.6 -0.09,-3 -2.59,-5.38 -5.6,-5.3 -3.01,0.09 -5.39,2.59 -5.31,5.61" /><path
         id="path308"
         style="fill:#17203b;fill-opacity:1;fill-rule:nonzero;stroke:none"
         d="m 3819.38,1009.06 c 0.08,3.01 2.59,5.38 5.6,5.31 3.01,-0.09 5.38,-2.59 5.3,-5.61 -0.08,-3.01 -2.59,-5.38 -5.6,-5.29 -3.01,0.07 -5.38,2.58 -5.3,5.59" /><path
         id="path310"
         style="fill:#17203b;fill-opacity:1;fill-rule:nonzero;stroke:none"
         d="m 3772.6,957.238 c 0.08,3 2.59,5.383 5.6,5.301 3.01,-0.09 5.38,-2.59 5.3,-5.609 -0.08,-3 -2.59,-5.379 -5.6,-5.301 -3.01,0.09 -5.39,2.601 -5.3,5.609" /><path
         id="path312"
         style="fill:#17203b;fill-opacity:1;fill-rule:nonzero;stroke:none"
         d="m 3795.26,956.609 c 0.08,3.02 2.59,5.391 5.6,5.301 3.01,-0.07 5.39,-2.578 5.3,-5.59 -0.08,-3.019 -2.59,-5.39 -5.6,-5.3 -3.01,0.07 -5.38,2.582 -5.3,5.589" /><path
         id="path314"
         style="fill:#17203b;fill-opacity:1;fill-rule:nonzero;stroke:none"
         d="m 3817.92,956 c 0.09,3 2.59,5.379 5.61,5.301 3,-0.09 5.38,-2.602 5.29,-5.61 -0.08,-3 -2.58,-5.382 -5.6,-5.3 -3.01,0.089 -5.38,2.589 -5.3,5.609" /><path
         id="path316"
         style="fill:#b6e4db;fill-opacity:1;fill-rule:nonzero;stroke:none"
         d="m 3803.84,955.23 -5.74,0.161 -21.41,56.859 5.74,-0.16 21.41,-56.86" /><path
         id="path318"
         style="fill:#b6e4db;fill-opacity:1;fill-rule:nonzero;stroke:none"
         d="m 3826.82,954.602 -5.74,0.16 -21.41,56.848 5.74,-0.15 21.41,-56.858" /><path
         id="path320"
         style="fill:#def4f4;fill-opacity:1;fill-rule:nonzero;stroke:none"
         d="m 3780.89,955.859 -5.74,0.161 1.54,56.23 5.74,-0.16 -1.54,-56.231" /><path
         id="path322"
         style="fill:#def4f4;fill-opacity:1;fill-rule:nonzero;stroke:none"
         d="m 3803.84,955.23 -5.74,0.161 1.54,56.219 5.74,-0.15 -1.54,-56.23" /><path
         id="path324"
         style="fill:#def4f4;fill-opacity:1;fill-rule:nonzero;stroke:none"
         d="m 3826.79,954.602 -5.74,0.16 1.54,56.228 5.74,-0.16 -1.54,-56.228" /><path
         id="path326"
         style="fill:#17203b;fill-opacity:1;fill-rule:nonzero;stroke:none"
         d="m 3635.13,960.18 266.23,256.12 c 0,0 -238.44,-90.77 -486.32,-72.17 -169.29,12.72 -342.99,144.85 -448.11,126.1 -15.37,-2.74 -28.7,-12.24 -37.41,-25.19 -13.79,-20.52 -12.27,-52.95 4.06,-71.5 95.62,-108.49 265.56,-198.36 320.36,-225.681 11.3,-5.629 23.68,-8.578 36.31,-8.679 l 286.77,-2.168 c 21.65,-0.16 42.5,8.16 58.11,23.168" /><path
         id="path328"
         style="fill:#f68c68;fill-opacity:1;fill-rule:nonzero;stroke:none"
         d="m 3638.31,1043.31 97.07,-34.61 c 10.77,-3.85 17.86,-14.188 17.54,-25.618 -0.4,-14.602 -12.55,-26.113 -27.15,-25.711 l -88.03,2.418 0.57,83.521" /><path
         id="path330"
         style="fill:#283876;fill-opacity:1;fill-rule:nonzero;stroke:none"
         d="m 3696.58,946.32 6.23,84.59 c 0,0 -472.29,279.69 -733.24,239.76 -16.35,-2.5 -30.83,-11.91 -40.05,-25.63 -14.19,-21.1 -13.71,-49.09 1.97,-69.1 49.24,-62.82 304.29,-198.178 765.09,-229.62" /><path
         id="path332"
         style="fill:#17203b;fill-opacity:1;fill-rule:nonzero;stroke:none"
         d="m 2999.23,936.93 107.75,7.949 c 26.32,1.953 44.77,19.141 42.83,45.461 -1.94,26.32 -24.47,40.93 -50.79,38.99 l -99.53,-8.21 c -26.32,-1.94 -52.53,-19.28 -50.59,-45.6 1.94,-26.321 24.01,-40.532 50.33,-38.59" /><path
         id="path334"
         style="fill:#17203b;fill-opacity:1;fill-rule:nonzero;stroke:none"
         d="m 3067.36,1011.88 c -0.22,3.01 -2.83,5.27 -5.84,5.04 -3,-0.22 -5.26,-2.84 -5.04,-5.84 0.23,-3 2.84,-5.25 5.84,-5.04 3.01,0.23 5.26,2.85 5.04,5.84" /><path
         id="path336"
         style="fill:#17203b;fill-opacity:1;fill-rule:nonzero;stroke:none"
         d="m 3044.75,1010.21 c -0.22,3.01 -2.84,5.27 -5.84,5.04 -3,-0.22 -5.26,-2.83 -5.03,-5.84 0.22,-2.99 2.83,-5.25 5.84,-5.04 3,0.23 5.26,2.85 5.03,5.84" /><path
         id="path338"
         style="fill:#17203b;fill-opacity:1;fill-rule:nonzero;stroke:none"
         d="m 3022.14,1008.54 c -0.22,3.01 -2.83,5.27 -5.84,5.04 -3,-0.21 -5.26,-2.83 -5.04,-5.84 0.23,-2.99 2.84,-5.25 5.84,-5.03 3.01,0.22 5.26,2.84 5.04,5.83" /><path
         id="path340"
         style="fill:#17203b;fill-opacity:1;fill-rule:nonzero;stroke:none"
         d="m 3071.27,958.941 c -0.23,3 -2.84,5.258 -5.84,5.028 -3,-0.219 -5.26,-2.828 -5.04,-5.84 0.23,-2.988 2.84,-5.25 5.84,-5.02 3,0.211 5.26,2.832 5.04,5.832" /><path
         id="path342"
         style="fill:#17203b;fill-opacity:1;fill-rule:nonzero;stroke:none"
         d="m 3048.66,957.281 c -0.22,2.989 -2.84,5.25 -5.84,5.02 -3.01,-0.211 -5.26,-2.832 -5.04,-5.84 0.22,-2.992 2.84,-5.25 5.84,-5.02 3.01,0.207 5.26,2.829 5.04,5.84" /><path
         id="path344"
         style="fill:#17203b;fill-opacity:1;fill-rule:nonzero;stroke:none"
         d="m 3026.05,955.609 c -0.22,2.993 -2.84,5.25 -5.84,5.032 -3,-0.219 -5.26,-2.84 -5.03,-5.84 0.22,-3 2.83,-5.262 5.83,-5.031 3,0.218 5.26,2.832 5.04,5.839" /><path
         id="path346"
         style="fill:#b6e4db;fill-opacity:1;fill-rule:nonzero;stroke:none"
         d="m 3040.16,955.492 5.72,0.43 18.76,57.778 -5.72,-0.42 -18.76,-57.788" /><path
         id="path348"
         style="fill:#b6e4db;fill-opacity:1;fill-rule:nonzero;stroke:none"
         d="m 3017.23,953.801 5.72,0.429 18.76,57.78 -5.72,-0.43 -18.76,-57.779" /><path
         id="path350"
         style="fill:#def4f4;fill-opacity:1;fill-rule:nonzero;stroke:none"
         d="m 3063.05,957.18 5.72,0.429 -4.13,56.091 -5.72,-0.42 4.13,-56.1" /><path
         id="path352"
         style="fill:#def4f4;fill-opacity:1;fill-rule:nonzero;stroke:none"
         d="m 3040.16,955.492 5.72,0.43 -4.14,56.088 -5.72,-0.42 4.14,-56.098" /><path
         id="path354"
         style="fill:#def4f4;fill-opacity:1;fill-rule:nonzero;stroke:none"
         d="m 3017.26,953.809 5.72,0.421 -4.13,56.09 -5.73,-0.42 4.14,-56.091" /><path
         id="path356"
         style="fill:#f68c68;fill-opacity:1;fill-rule:nonzero;stroke:none"
         d="m 3201.44,1051.13 -95.37,-39.06 c -10.59,-4.34 -17.18,-15 -16.34,-26.41 1.07,-14.558 13.75,-25.488 28.31,-24.422 l 87.82,6.473 -4.42,83.419" /><path
         id="path358"
         style="fill:#28419e;fill-opacity:1;fill-rule:nonzero;stroke:none"
         d="m 3171.49,955.492 -31.42,78.088 c 0,0 437.18,275.96 718.88,275.59 16.53,-0.02 31.34,-10.48 41.19,-23.75 v -0.01 c 15.15,-20.42 15.96,-48.4 1.22,-69.11 -46.28,-65.02 -271.02,-208.09 -729.87,-260.808" /><path
         id="path360"
         style="fill:#f68c68;fill-opacity:1;fill-rule:nonzero;stroke:none"
         d="m 2713.15,2823.47 c -2.66,5.98 -9.8,8.52 -15.8,6.26 l -52.71,-19.9 -0.12,0.23 61.75,26.02 c 5.92,2.49 9.3,9.24 7.04,15.38 -2.41,6.56 -9.68,9.75 -15.91,7.13 l -64.73,-27.28 -0.15,0.27 70.39,39.23 c 5.6,3.12 8.24,10.2 5.35,16.08 -3.09,6.26 -10.64,8.66 -16.54,5.37 l -70.97,-39.55 -0.49,0.88 53.91,36.56 c 5.3,3.6 7.32,10.89 3.95,16.51 -3.59,5.99 -11.31,7.72 -16.9,3.93 l -60.84,-41.26 c 0,0 -32.77,-8.36 -45.86,-27.59 -3.28,-4.82 -5.3,-10.39 -6.25,-16.13 -33.41,-27.17 -68.72,-51.98 -105.68,-74.13 16.77,-21.98 27.75,-39.72 45.02,-55.68 32.89,22.11 69.81,49.34 99.59,75.83 1.34,0.02 15.41,-7.91 28.32,-0.63 l 11.1,6.18 80.03,30.21 c 6.32,2.39 9.34,9.69 6.5,16.08" /><path
         id="path362"
         style="fill:#25b5a6;fill-opacity:1;fill-rule:nonzero;stroke:none"
         d="m 1884.82,2614.06 c 213.88,-2.28 426.33,63.95 600.63,188.25 24.98,-32.52 40.56,-72.87 36.73,-110.66 -187.59,-138.59 -420.96,-209.58 -653.93,-199.05 -12.82,45.04 -4.76,85.18 16.57,121.46" /><path
         id="path364"
         style="fill:#f68c68;fill-opacity:1;fill-rule:nonzero;stroke:none"
         d="m 2036.79,1143.17 h 82.81 l 1.67,-128.39 140.05,-49.288 v -26.16 h -227.83 l 10.8,26.16 -7.5,177.678" /><path
         id="path366"
         style="fill:#283876;fill-opacity:1;fill-rule:nonzero;stroke:none"
         d="m 2121.27,1014.78 140.05,-49.288 v -26.16 h -227.83 v 26.16 l 5.43,49.288 h 82.35" /><path
         id="path368"
         style="fill:#f68c68;fill-opacity:1;fill-rule:nonzero;stroke:none"
         d="m 1645.2,1143.17 h 82.81 l -21.4,-128.39 140.05,-49.288 v -26.16 h -227.83 l 10.79,26.16 15.58,177.678" /><path
         id="path370"
         style="fill:#283876;fill-opacity:1;fill-rule:nonzero;stroke:none"
         d="m 1706.61,1014.78 140.05,-49.288 v -26.16 h -227.83 v 26.16 l 16.43,49.288 h 71.35" /><path
         id="path372"
         style="fill:#283876;fill-opacity:1;fill-rule:nonzero;stroke:none"
         d="m 1894.86,1914.55 v 87.12 h 189.76 c 0,0 45.24,-311.8 40.27,-864.4 h -96.04 c 0,0 -36.87,409.73 -133.29,782.37 -0.22,-1.7 -0.48,-3.4 -0.7,-5.09" /><path
         id="path374"
         style="fill:#283876;fill-opacity:1;fill-rule:nonzero;stroke:none"
         d="m 1711.61,2001.67 v 0 h 215.38 c -81.24,-359.09 -193.63,-864.4 -193.63,-864.4 h -96.39 c 0,0 49.08,583.52 74.64,864.4" /><path
         id="path376"
         style="fill:#374da8;fill-opacity:1;fill-rule:nonzero;stroke:none"
         d="m 1787.01,2001.67 h 52.74 c -81.24,-359.09 -145.49,-864.4 -145.49,-864.4 h -27.28 c 0,0 94.47,583.52 120.03,864.4" /><path
         id="path378"
         style="fill:#25b5a6;fill-opacity:1;fill-rule:nonzero;stroke:none"
         d="m 1893.36,2644.16 h 11.67 c 3.08,0 6.15,-0.08 9.2,-0.25 75.07,-4.02 126.68,-82.13 131.58,-156.45 0.36,-5.53 38.81,-485.79 38.81,-485.79 h -373.01 l 21.31,492.9 c 2.49,83.19 67.29,145.26 152.05,149.39 2.79,0.13 5.59,0.2 8.39,0.2" /><path
         id="path380"
         style="fill:#f68c68;fill-opacity:1;fill-rule:nonzero;stroke:none"
         d="m 2015.01,1883.31 c -18.43,16.45 -60.41,39.65 -88.67,62.77 15.07,1.22 35.35,4.98 27.2,20.25 -7.77,-6.1 -34.69,4.83 -60.12,6.04 -25.8,22.87 -71.28,67.35 -92.86,92.18 -15.54,-16.89 -28.85,-37.62 -39.39,-54.04 20.05,-20.76 61.97,-59.86 87.1,-80.69 3.03,-13.64 12.03,-27.08 19.84,-36.64 16.4,-20.07 35.56,-36.59 52.34,-56.35 4.28,-5.03 12.75,-0.43 10.12,5.92 -3.18,7.68 -12.36,22.23 -15.53,29.91 4.34,-5.59 35.96,-42.89 49.59,-48.14 5.81,-2.23 9.9,4.31 6.89,9.09 -11.3,17.95 -24.44,32.52 -35.74,50.47 18.23,-14.83 36.67,-29.39 55.69,-43.23 5.71,-4.15 11.65,2.79 8.26,8.31 -10.22,16.65 -35.72,40.12 -50.04,54.12 14.69,-9.25 43.54,-22.34 59.97,-29.46 4.79,-2.07 8.94,6.29 5.35,9.49" /><path
         id="path382"
         style="fill:#25b5a6;fill-opacity:1;fill-rule:nonzero;stroke:none"
         d="m 1773.57,2591.01 -4.96,-165.09 c -47.79,-53.83 -84.38,-110.29 -81.44,-169.05 2.69,-27.44 115.99,-161.32 192.16,-248.99 -19.78,-34.2 -51.71,-56.56 -91.62,-64.21 -72.31,87.32 -218.37,229.03 -223.38,314.05 -6.94,117.72 106.25,247.67 209.24,333.29" /><path
         id="path384"
         style="fill:#18b1a0;fill-opacity:1;fill-rule:nonzero;stroke:none"
         d="m 1769.73,2430.39 c -47.79,-53.83 -84.38,-110.28 -81.44,-169.04 2.69,-27.44 115.99,-161.33 192.16,-249 0,0 -199.99,174.43 -205,259.47 3.03,87.39 94.28,158.57 94.28,158.57" /><path
         id="path386"
         style="fill:#fccc17;fill-opacity:1;fill-rule:nonzero;stroke:none"
         d="m 1876.74,3011.14 c 39.57,2.29 81.03,-6.93 112.91,-30.73 15.49,-11.57 25.71,-26.64 30.55,-45.34 4.12,-15.94 105.06,-283.12 105.06,-283.12 h -248.52 v 359.19" /><path
         id="path388"
         style="fill:#f68c68;fill-opacity:1;fill-rule:nonzero;stroke:none"
         d="m 1805.3,2882.48 c 0,70.23 56.25,127.31 126.16,128.64 72.13,1.38 131.17,-59.03 131.17,-131.17 0,-25.5 0,-55.65 0,-84.8 0,-65.19 -52.84,-118.03 -118.04,-118.03 h -4.8 v -103.79 c 0,-32.12 -116.31,25.55 -116.31,57.67 v 78.48 c 0,48.32 -3.91,96.75 -14.85,143.81 -2.18,9.38 -3.33,19.15 -3.33,29.19" /><path
         id="path390"
         style="fill:#fccc17;fill-opacity:1;fill-rule:nonzero;stroke:none"
         d="m 1778.95,2954.06 c 28.46,63.4 123.06,82.63 184.95,69.24 66.41,-14.36 114.08,-75.85 114.08,-143.35 v -26.8 h -185.09 v -201.2 h -226.6 c 0,0 103.09,280.79 112.66,302.11" /><path
         id="path392"
         style="fill:#f68c68;fill-opacity:1;fill-rule:nonzero;stroke:none"
         d="m 1875.89,2820.69 c 7.16,0 13.64,-2.72 18.66,-7.06 v -43.27 c -5.02,-4.34 -11.5,-7.07 -18.66,-7.07 -15.85,0 -28.7,12.85 -28.7,28.7 0,15.85 12.85,28.7 28.7,28.7" /><path
         id="path394"
         style="fill:#ffffff;fill-opacity:1;fill-rule:nonzero;stroke:none"
         d="m 2665.22,2671.71 350.47,156.54 -156.54,350.46 -350.46,-156.54 156.53,-350.46" /><path
         id="path396"
         style="fill:#f68c68;fill-opacity:1;fill-rule:nonzero;stroke:none"
         d="m 2567.62,2845.83 c 5.4,2.94 12.61,2.2 18.45,3.76 6.32,1.7 11.87,5.35 17.83,7.95 3.1,1.36 7.92,3.94 11.36,3.34 10.89,-1.9 7.86,-11.11 3.82,-16.42 -6.51,-8.54 -18.97,-12.65 -23.45,-22.77 l -0.22,-1.03 -2.58,-2.11 c -3.37,-2.39 -6.72,-3.38 -9.86,-3.64 -4.31,0.81 -8.39,2.28 -11.91,4.79 -7.94,5.69 -14.24,20.25 -3.44,26.13" /></g></g></svg>