<svg width="723" height="219" viewBox="0 0 723 219" fill="none" xmlns="http://www.w3.org/2000/svg">
<rect x="7.5" y="115.5" width="85" height="85" stroke="#0075FF" stroke-width="15"/>
<rect x="57.5" y="65.5" width="85" height="85" stroke="#0075FF" stroke-width="15"/>
<path d="M154.608 155V143.336L159.36 142.904C162.144 142.616 163.536 141.272 163.536 138.872V71.912L155.328 71.48V59.24H194.64C205.776 59.24 214.32 61.304 220.272 65.432C226.224 69.56 229.2 76.328 229.2 85.736C229.2 92.264 227.472 97.64 224.016 101.864C220.656 106.088 216.624 109.16 211.92 111.08C215.376 112.328 218.112 115.256 220.128 119.864L230.496 142.472L238.704 142.76V155H203.136V143.336L207.312 142.904C209.52 142.616 210.624 141.752 210.624 140.312C210.624 139.736 210.432 139.064 210.048 138.296L203.28 123.896C202.224 121.496 201.024 119.816 199.68 118.856C198.432 117.8 196.608 117.272 194.208 117.272H181.104V142.328L190.464 142.76V155H154.608ZM181.104 103.592H193.632C205.44 103.592 211.344 98.312 211.344 87.752C211.344 81.704 209.76 77.768 206.592 75.944C203.52 74.12 198.528 73.208 191.616 73.208H181.104V103.592ZM249.933 138.872L273.117 71.768L264.045 70.904V59.24H297.021L326.397 142.328H326.541L334.749 142.76V155H297.597V143.336L303.069 142.904C304.701 142.712 305.805 142.328 306.381 141.752C306.957 141.176 307.005 140.12 306.525 138.584L303.501 129.656H269.805L265.485 142.328L274.125 142.76V155H240.861V143.336L245.613 142.904C247.629 142.712 249.069 141.368 249.933 138.872ZM286.653 75.368L273.261 116.408H300.045L287.085 75.368H286.653ZM407.34 138.152V113.24H366.588V142.328L374.94 142.76V155H340.092V143.336L344.844 142.904C347.628 142.616 349.02 141.272 349.02 138.872V71.912L340.812 71.48V59.24H375.66V70.904L370.908 71.336C369.372 71.528 368.268 71.96 367.596 72.632C366.924 73.208 366.588 74.36 366.588 76.088V98.408H407.34V71.912L399.132 71.48V59.24H433.98V70.904L429.228 71.336C426.444 71.624 425.052 73.16 425.052 75.944V142.328L433.26 142.76V155H398.412V143.336L403.164 142.904C404.604 142.712 405.66 142.328 406.332 141.752C407.004 141.08 407.34 139.88 407.34 138.152ZM473.712 59.24L498.192 124.328H498.48L523.104 59.24H551.616V70.904L546.864 71.336C543.984 71.624 542.592 73.304 542.688 76.376L546.288 142.328L555.216 142.76V155H520.512V143.336L525.696 142.904C528.288 142.712 529.536 141.464 529.44 139.16L526.704 88.328H526.416L504.24 145.784H490.56L468.672 88.904H468.384L465.504 142.328L474.864 142.76V155H440.88V143.336L446.064 142.904C448.272 142.712 449.472 141.416 449.664 139.016L453.552 72.056L444.768 71.48V59.24H473.712ZM567.886 138.872L591.07 71.768L581.998 70.904V59.24H614.974L644.35 142.328H644.494L652.702 142.76V155H615.55V143.336L621.022 142.904C622.654 142.712 623.758 142.328 624.334 141.752C624.91 141.176 624.958 140.12 624.478 138.584L621.454 129.656H587.758L583.438 142.328L592.078 142.76V155H558.814V143.336L563.566 142.904C565.582 142.712 567.022 141.368 567.886 138.872ZM604.606 75.368L591.214 116.408H617.998L605.038 75.368H604.606ZM674.705 138.872V73.496H663.473C661.265 73.496 660.161 74.984 660.161 77.96V84.728L645.473 83.72V59.24H720.785V83.72L706.097 84.728V77.96C706.097 76.328 705.857 75.176 705.377 74.504C704.897 73.832 703.745 73.496 701.921 73.496H692.129V142.328L703.505 142.76V155H662.897V143.336L670.529 142.904C673.313 142.616 674.705 141.272 674.705 138.872Z" fill="#0075FF"/>
<path d="M144.2 184.64L142.88 184.76C142.187 184.813 141.747 185.293 141.56 186.2L136.52 208H131.04L126.84 190.2H126.72L122.64 208H117L111.48 184.92L109.2 184.8V181.4H119.12V184.64L117.8 184.76C116.973 184.84 116.56 185.187 116.56 185.8C116.56 185.907 116.573 186.027 116.6 186.16L120.08 201.6H120.24L124.4 183.52H129.56L133.88 201.68H133.96L137.36 184.96L135.2 184.8V181.4H144.2V184.64ZM155.751 187.28C157.751 187.28 159.337 187.773 160.511 188.76C161.684 189.72 162.271 191.08 162.271 192.84C162.271 194.013 162.017 195.053 161.511 195.96C161.004 196.84 160.377 197.533 159.631 198.04C158.884 198.547 157.977 198.96 156.911 199.28C155.124 199.813 153.111 200.08 150.871 200.08C150.951 201.493 151.391 202.64 152.191 203.52C152.991 204.373 154.217 204.8 155.871 204.8C157.524 204.8 159.177 204.213 160.831 203.04L162.351 206.28C161.817 206.76 160.911 207.253 159.631 207.76C158.377 208.267 156.937 208.52 155.311 208.52C152.057 208.52 149.671 207.627 148.151 205.84C146.631 204.027 145.871 201.547 145.871 198.4C145.871 195.253 146.737 192.613 148.471 190.48C150.204 188.347 152.631 187.28 155.751 187.28ZM153.911 196.44C154.897 196.253 155.804 195.867 156.631 195.28C157.457 194.667 157.871 193.947 157.871 193.12C157.871 191.493 157.071 190.68 155.471 190.68C153.977 190.68 152.831 191.28 152.031 192.48C151.231 193.653 150.791 195.067 150.711 196.72C151.884 196.693 152.951 196.6 153.911 196.44ZM166.846 206.8V183.84C166.846 183.227 166.512 182.907 165.846 182.88L164.446 182.8V179.48H171.486V188.96C172.686 187.84 174.299 187.28 176.326 187.28C178.832 187.28 180.819 188.133 182.286 189.84C183.752 191.52 184.486 193.893 184.486 196.96C184.486 204.667 181.259 208.52 174.806 208.52C173.419 208.52 171.952 208.347 170.406 208C168.886 207.68 167.699 207.28 166.846 206.8ZM171.486 193.84V204.2C172.499 204.733 173.672 205 175.006 205C178.046 205 179.566 202.533 179.566 197.6C179.566 193.093 178.072 190.84 175.086 190.84C174.126 190.84 173.286 191.12 172.566 191.68C171.846 192.24 171.486 192.96 171.486 193.84ZM197.792 190.92C197.152 190.68 196.379 190.56 195.472 190.56C194.566 190.56 193.832 190.773 193.272 191.2C192.739 191.6 192.472 192.107 192.472 192.72C192.472 193.307 192.566 193.773 192.752 194.12C192.966 194.44 193.286 194.72 193.712 194.96C194.379 195.307 195.179 195.613 196.112 195.88C197.046 196.12 197.739 196.32 198.192 196.48C198.646 196.613 199.206 196.853 199.872 197.2C200.566 197.547 201.086 197.92 201.432 198.32C202.366 199.307 202.832 200.573 202.832 202.12C202.832 204.12 202.099 205.693 200.632 206.84C199.192 207.96 197.352 208.52 195.112 208.52C191.859 208.52 189.406 208.107 187.752 207.28V201.72L191.352 201.44V203.36C191.352 204.533 192.472 205.12 194.712 205.12C196.952 205.12 198.072 204.307 198.072 202.68C198.072 202.093 197.872 201.613 197.472 201.24C197.099 200.867 196.726 200.613 196.352 200.48C195.979 200.347 195.526 200.213 194.992 200.08C194.486 199.947 193.979 199.813 193.472 199.68C192.992 199.547 192.459 199.373 191.872 199.16C191.312 198.92 190.686 198.587 189.992 198.16C188.632 197.28 187.952 195.813 187.952 193.76C187.952 191.68 188.686 190.08 190.152 188.96C191.619 187.84 193.459 187.28 195.672 187.28C197.912 187.28 200.126 187.813 202.312 188.88V193.68L198.712 193.96V192.28C198.712 191.613 198.406 191.16 197.792 190.92ZM212.599 187.88V204.68L214.879 204.8V208H205.359V204.96L206.679 204.84C207.452 204.76 207.839 204.333 207.839 203.56V192.44C207.839 191.987 207.759 191.68 207.599 191.52C207.466 191.36 207.212 191.28 206.839 191.28L205.439 191.2V187.88H212.599ZM207.559 184.44C206.999 183.88 206.719 183.173 206.719 182.32C206.719 181.467 206.999 180.76 207.559 180.2C208.119 179.613 208.852 179.32 209.759 179.32C210.666 179.32 211.399 179.613 211.959 180.2C212.546 180.76 212.839 181.467 212.839 182.32C212.839 183.173 212.546 183.88 211.959 184.44C211.399 184.973 210.666 185.24 209.759 185.24C208.852 185.24 208.119 184.973 207.559 184.44ZM221.635 183.64H224.235V187.88H229.555L229.155 191.24H224.235V201.76C224.235 202.933 224.448 203.76 224.875 204.24C225.302 204.693 225.955 204.92 226.835 204.92C227.742 204.92 228.648 204.64 229.555 204.08L230.755 207.16C229.422 208.093 227.728 208.56 225.675 208.56C224.475 208.56 223.462 208.4 222.635 208.08C221.808 207.787 221.195 207.453 220.795 207.08C220.395 206.707 220.088 206.16 219.875 205.44C219.662 204.72 219.542 204.16 219.515 203.76C219.488 203.333 219.475 202.72 219.475 201.92V191.24H216.635L217.035 188.32C218.288 188.213 219.235 187.773 219.875 187C220.515 186.2 221.102 185.08 221.635 183.64ZM242.313 187.28C244.313 187.28 245.9 187.773 247.073 188.76C248.246 189.72 248.833 191.08 248.833 192.84C248.833 194.013 248.58 195.053 248.073 195.96C247.566 196.84 246.94 197.533 246.193 198.04C245.446 198.547 244.54 198.96 243.473 199.28C241.686 199.813 239.673 200.08 237.433 200.08C237.513 201.493 237.953 202.64 238.753 203.52C239.553 204.373 240.78 204.8 242.433 204.8C244.086 204.8 245.74 204.213 247.393 203.04L248.913 206.28C248.38 206.76 247.473 207.253 246.193 207.76C244.94 208.267 243.5 208.52 241.873 208.52C238.62 208.52 236.233 207.627 234.713 205.84C233.193 204.027 232.433 201.547 232.433 198.4C232.433 195.253 233.3 192.613 235.033 190.48C236.766 188.347 239.193 187.28 242.313 187.28ZM240.473 196.44C241.46 196.253 242.366 195.867 243.193 195.28C244.02 194.667 244.433 193.947 244.433 193.12C244.433 191.493 243.633 190.68 242.033 190.68C240.54 190.68 239.393 191.28 238.593 192.48C237.793 193.653 237.353 195.067 237.273 196.72C238.446 196.693 239.513 196.6 240.473 196.44ZM267.976 204.4C271.176 204.4 272.776 203.12 272.776 200.56C272.776 199.227 272.069 198.24 270.656 197.6C269.909 197.227 268.936 196.88 267.736 196.56C266.563 196.24 265.576 195.92 264.776 195.6C264.003 195.253 263.216 194.787 262.416 194.2C260.843 193.027 260.056 191.227 260.056 188.8C260.056 186.347 260.896 184.427 262.576 183.04C264.283 181.627 266.496 180.92 269.216 180.92C271.963 180.92 274.509 181.467 276.856 182.56V188.56L272.776 188.84V186.52C272.776 186.12 272.723 185.827 272.616 185.64C272.323 185.133 271.376 184.88 269.776 184.88C268.203 184.88 267.029 185.16 266.256 185.72C265.509 186.28 265.136 187.147 265.136 188.32C265.136 189.173 265.456 189.92 266.096 190.56C266.523 190.987 267.149 191.347 267.976 191.64C268.829 191.907 269.723 192.187 270.656 192.48C271.616 192.773 272.456 193.093 273.176 193.44C273.923 193.787 274.696 194.267 275.496 194.88C277.123 196.08 277.936 197.933 277.936 200.44C277.936 202.947 277.029 204.92 275.216 206.36C273.429 207.8 271.056 208.52 268.096 208.52C265.163 208.52 262.523 207.973 260.176 206.88V200.56L264.256 200.28V202.72C264.256 203.12 264.309 203.413 264.416 203.6C264.523 203.787 264.843 203.973 265.376 204.16C265.936 204.32 266.803 204.4 267.976 204.4ZM289.754 205.08C292.661 205.08 294.114 202.733 294.114 198.04C294.114 195.667 293.781 193.867 293.114 192.64C292.474 191.413 291.381 190.8 289.834 190.8C288.314 190.8 287.194 191.387 286.474 192.56C285.754 193.733 285.394 195.333 285.394 197.36C285.394 201.12 286.088 203.48 287.474 204.44C288.088 204.867 288.848 205.08 289.754 205.08ZM280.554 197.92C280.554 195.947 280.848 194.24 281.434 192.8C282.021 191.333 282.808 190.213 283.794 189.44C285.688 188 287.781 187.28 290.074 187.28C291.674 187.28 293.021 187.547 294.114 188.08C295.234 188.587 296.101 189.187 296.714 189.88C297.354 190.547 297.888 191.533 298.314 192.84C298.768 194.12 298.994 195.64 298.994 197.4C298.994 201.08 298.101 203.867 296.314 205.76C294.528 207.653 292.234 208.6 289.434 208.6C286.661 208.6 284.488 207.707 282.914 205.92C281.341 204.107 280.554 201.44 280.554 197.92ZM308.847 179.48V204.68L311.127 204.8V208H301.607V204.96L302.927 204.84C303.701 204.76 304.087 204.333 304.087 203.56V183.84C304.087 183.253 303.754 182.933 303.087 182.88L301.687 182.8V179.48H308.847ZM334.411 204.84V208H327.931V205.4C326.464 207.48 324.304 208.52 321.451 208.52C317.317 208.52 315.251 206.213 315.251 201.6V192.36C315.251 191.64 314.917 191.267 314.251 191.24L312.971 191.16V187.88H320.011V200.56C320.011 201.973 320.211 203.04 320.611 203.76C321.011 204.48 321.837 204.84 323.091 204.84C324.344 204.84 325.344 204.453 326.091 203.68C326.864 202.907 327.251 201.973 327.251 200.88V192.44C327.251 192.013 327.171 191.72 327.011 191.56C326.877 191.373 326.624 191.267 326.251 191.24L324.971 191.16V187.88H332.011V203.56C332.011 203.987 332.077 204.28 332.211 204.44C332.344 204.573 332.611 204.667 333.011 204.72L334.411 204.84ZM340.073 183.64H342.673V187.88H347.993L347.593 191.24H342.673V201.76C342.673 202.933 342.886 203.76 343.313 204.24C343.739 204.693 344.393 204.92 345.273 204.92C346.179 204.92 347.086 204.64 347.993 204.08L349.193 207.16C347.859 208.093 346.166 208.56 344.113 208.56C342.913 208.56 341.899 208.4 341.073 208.08C340.246 207.787 339.633 207.453 339.233 207.08C338.833 206.707 338.526 206.16 338.313 205.44C338.099 204.72 337.979 204.16 337.953 203.76C337.926 203.333 337.913 202.72 337.913 201.92V191.24H335.073L335.473 188.32C336.726 188.213 337.673 187.773 338.313 187C338.953 186.2 339.539 185.08 340.073 183.64ZM357.951 187.88V204.68L360.231 204.8V208H350.711V204.96L352.031 204.84C352.804 204.76 353.191 204.333 353.191 203.56V192.44C353.191 191.987 353.111 191.68 352.951 191.52C352.817 191.36 352.564 191.28 352.191 191.28L350.791 191.2V187.88H357.951ZM352.911 184.44C352.351 183.88 352.071 183.173 352.071 182.32C352.071 181.467 352.351 180.76 352.911 180.2C353.471 179.613 354.204 179.32 355.111 179.32C356.017 179.32 356.751 179.613 357.311 180.2C357.897 180.76 358.191 181.467 358.191 182.32C358.191 183.173 357.897 183.88 357.311 184.44C356.751 184.973 356.017 185.24 355.111 185.24C354.204 185.24 353.471 184.973 352.911 184.44ZM371.747 205.08C374.653 205.08 376.107 202.733 376.107 198.04C376.107 195.667 375.773 193.867 375.107 192.64C374.467 191.413 373.373 190.8 371.827 190.8C370.307 190.8 369.187 191.387 368.467 192.56C367.747 193.733 367.387 195.333 367.387 197.36C367.387 201.12 368.08 203.48 369.467 204.44C370.08 204.867 370.84 205.08 371.747 205.08ZM362.547 197.92C362.547 195.947 362.84 194.24 363.427 192.8C364.013 191.333 364.8 190.213 365.787 189.44C367.68 188 369.773 187.28 372.067 187.28C373.667 187.28 375.013 187.547 376.107 188.08C377.227 188.587 378.093 189.187 378.707 189.88C379.347 190.547 379.88 191.533 380.307 192.84C380.76 194.12 380.987 195.64 380.987 197.4C380.987 201.08 380.093 203.867 378.307 205.76C376.52 207.653 374.227 208.6 371.427 208.6C368.653 208.6 366.48 207.707 364.907 205.92C363.333 204.107 362.547 201.44 362.547 197.92ZM383.439 191.08V187.88H390.199V190.48C390.893 189.493 391.813 188.72 392.959 188.16C394.106 187.573 395.346 187.28 396.679 187.28C398.706 187.28 400.266 187.867 401.359 189.04C402.479 190.187 403.039 191.92 403.039 194.24V204.68L405.319 204.8V208H395.799V204.96L397.119 204.84C397.519 204.787 397.813 204.68 397.999 204.52C398.186 204.333 398.279 204 398.279 203.52V195.28C398.279 193.813 398.053 192.733 397.599 192.04C397.146 191.32 396.279 190.96 394.999 190.96C393.746 190.96 392.746 191.36 391.999 192.16C391.253 192.96 390.879 193.907 390.879 195V204.68L393.159 204.8V208H383.639V204.96L384.959 204.84C385.359 204.787 385.653 204.68 385.839 204.52C386.026 204.333 386.119 204 386.119 203.52V192.44C386.119 191.64 385.786 191.227 385.119 191.2L383.439 191.08ZM418.192 203.52V191.24H414.752V187.88H418.192V186.36C418.192 183.747 418.792 181.867 419.992 180.72C421.112 179.627 422.752 179.08 424.912 179.08C427.072 179.08 428.992 179.547 430.672 180.48L429.512 183.68C428.232 183.013 427.032 182.68 425.912 182.68C424.792 182.68 424.018 182.96 423.592 183.52C423.165 184.053 422.952 184.88 422.952 186V187.88H428.872V191.24H422.952V204.64L426.312 204.8V208H415.712V204.96L417.032 204.84C417.432 204.787 417.725 204.68 417.912 204.52C418.098 204.333 418.192 204 418.192 203.52ZM439.286 205.08C442.192 205.08 443.646 202.733 443.646 198.04C443.646 195.667 443.312 193.867 442.646 192.64C442.006 191.413 440.912 190.8 439.366 190.8C437.846 190.8 436.726 191.387 436.006 192.56C435.286 193.733 434.926 195.333 434.926 197.36C434.926 201.12 435.619 203.48 437.006 204.44C437.619 204.867 438.379 205.08 439.286 205.08ZM430.086 197.92C430.086 195.947 430.379 194.24 430.966 192.8C431.552 191.333 432.339 190.213 433.326 189.44C435.219 188 437.312 187.28 439.606 187.28C441.206 187.28 442.552 187.547 443.646 188.08C444.766 188.587 445.632 189.187 446.246 189.88C446.886 190.547 447.419 191.533 447.846 192.84C448.299 194.12 448.526 195.64 448.526 197.4C448.526 201.08 447.632 203.867 445.846 205.76C444.059 207.653 441.766 208.6 438.966 208.6C436.192 208.6 434.019 207.707 432.446 205.92C430.872 204.107 430.086 201.44 430.086 197.92ZM453.698 203.52V192.44C453.698 192.013 453.618 191.72 453.458 191.56C453.325 191.373 453.072 191.267 452.698 191.24L451.018 191.12V187.88H457.778V190.88C458.258 189.84 459.005 188.987 460.018 188.32C461.032 187.627 462.192 187.28 463.498 187.28C464.832 187.28 466.098 187.573 467.298 188.16V194.12L463.578 194.4V192.56C463.578 192.027 463.445 191.693 463.178 191.56C462.885 191.427 462.525 191.36 462.098 191.36C461.032 191.36 460.152 191.747 459.458 192.52C458.792 193.267 458.458 194.227 458.458 195.4V204.68L461.938 204.84V208H451.218V204.96L452.538 204.84C452.938 204.787 453.232 204.68 453.418 204.52C453.605 204.333 453.698 204 453.698 203.52ZM485.263 203.52V197.84L478.463 184.92L476.583 184.8V181.4H486.343V184.64L485.143 184.76C484.716 184.787 484.436 184.947 484.303 185.24C484.196 185.533 484.249 185.893 484.463 186.32L487.863 193.28H488.023L492.383 184.96L490.383 184.8V181.4H498.983V184.64L497.783 184.76C497.276 184.813 496.823 185.213 496.423 185.96L490.143 197.84V204.48L493.263 204.6V208H481.983V204.76L484.103 204.64C484.876 204.587 485.263 204.213 485.263 203.52ZM506.903 205.08C509.809 205.08 511.263 202.733 511.263 198.04C511.263 195.667 510.929 193.867 510.263 192.64C509.623 191.413 508.529 190.8 506.983 190.8C505.463 190.8 504.343 191.387 503.623 192.56C502.903 193.733 502.543 195.333 502.543 197.36C502.543 201.12 503.236 203.48 504.623 204.44C505.236 204.867 505.996 205.08 506.903 205.08ZM497.703 197.92C497.703 195.947 497.996 194.24 498.583 192.8C499.169 191.333 499.956 190.213 500.943 189.44C502.836 188 504.929 187.28 507.223 187.28C508.823 187.28 510.169 187.547 511.263 188.08C512.383 188.587 513.249 189.187 513.863 189.88C514.503 190.547 515.036 191.533 515.463 192.84C515.916 194.12 516.143 195.64 516.143 197.4C516.143 201.08 515.249 203.867 513.463 205.76C511.676 207.653 509.383 208.6 506.583 208.6C503.809 208.6 501.636 207.707 500.063 205.92C498.489 204.107 497.703 201.44 497.703 197.92ZM539.45 204.84V208H532.97V205.4C531.503 207.48 529.343 208.52 526.49 208.52C522.356 208.52 520.29 206.213 520.29 201.6V192.36C520.29 191.64 519.956 191.267 519.29 191.24L518.01 191.16V187.88H525.05V200.56C525.05 201.973 525.25 203.04 525.65 203.76C526.05 204.48 526.876 204.84 528.13 204.84C529.383 204.84 530.383 204.453 531.13 203.68C531.903 202.907 532.29 201.973 532.29 200.88V192.44C532.29 192.013 532.21 191.72 532.05 191.56C531.916 191.373 531.663 191.267 531.29 191.24L530.01 191.16V187.88H537.05V203.56C537.05 203.987 537.116 204.28 537.25 204.44C537.383 204.573 537.65 204.667 538.05 204.72L539.45 204.84ZM544.363 203.52V192.44C544.363 192.013 544.283 191.72 544.123 191.56C543.989 191.373 543.736 191.267 543.363 191.24L541.683 191.12V187.88H548.443V190.88C548.923 189.84 549.669 188.987 550.683 188.32C551.696 187.627 552.856 187.28 554.163 187.28C555.496 187.28 556.763 187.573 557.963 188.16V194.12L554.243 194.4V192.56C554.243 192.027 554.109 191.693 553.843 191.56C553.549 191.427 553.189 191.36 552.763 191.36C551.696 191.36 550.816 191.747 550.123 192.52C549.456 193.267 549.123 194.227 549.123 195.4V204.68L552.603 204.84V208H541.882V204.96L543.202 204.84C543.603 204.787 543.896 204.68 544.083 204.52C544.269 204.333 544.363 204 544.363 203.52ZM568.607 181.4H579.887C585.647 181.4 588.527 183.627 588.527 188.08C588.527 190.533 587.3 192.4 584.847 193.68C586.42 194.08 587.647 194.813 588.527 195.88C589.434 196.947 589.887 198.333 589.887 200.04C589.887 202.627 589.007 204.6 587.247 205.96C585.514 207.32 582.98 208 579.647 208H568.407V204.76L569.727 204.64C570.5 204.56 570.887 204.187 570.887 203.52V184.92L568.607 184.8V181.4ZM575.767 195.88V204.24H579.527C582.994 204.24 584.727 202.827 584.727 200C584.727 198.667 584.287 197.653 583.407 196.96C582.554 196.24 581.327 195.88 579.727 195.88H575.767ZM575.767 185.08V192.32H578.727C580.38 192.32 581.594 191.987 582.367 191.32C583.167 190.627 583.567 189.667 583.567 188.44C583.567 187.213 583.167 186.347 582.367 185.84C581.594 185.333 580.474 185.08 579.007 185.08H575.767ZM612.848 204.84V208H606.368V205.4C604.901 207.48 602.741 208.52 599.888 208.52C595.755 208.52 593.688 206.213 593.688 201.6V192.36C593.688 191.64 593.355 191.267 592.688 191.24L591.408 191.16V187.88H598.448V200.56C598.448 201.973 598.648 203.04 599.048 203.76C599.448 204.48 600.275 204.84 601.528 204.84C602.781 204.84 603.781 204.453 604.528 203.68C605.301 202.907 605.688 201.973 605.688 200.88V192.44C605.688 192.013 605.608 191.72 605.448 191.56C605.315 191.373 605.061 191.267 604.688 191.24L603.408 191.16V187.88H610.448V203.56C610.448 203.987 610.515 204.28 610.648 204.44C610.781 204.573 611.048 204.667 611.448 204.72L612.848 204.84ZM625.37 190.92C624.73 190.68 623.957 190.56 623.05 190.56C622.144 190.56 621.41 190.773 620.85 191.2C620.317 191.6 620.05 192.107 620.05 192.72C620.05 193.307 620.144 193.773 620.33 194.12C620.544 194.44 620.864 194.72 621.29 194.96C621.957 195.307 622.757 195.613 623.69 195.88C624.624 196.12 625.317 196.32 625.77 196.48C626.224 196.613 626.784 196.853 627.45 197.2C628.144 197.547 628.664 197.92 629.01 198.32C629.944 199.307 630.41 200.573 630.41 202.12C630.41 204.12 629.677 205.693 628.21 206.84C626.77 207.96 624.93 208.52 622.69 208.52C619.437 208.52 616.984 208.107 615.33 207.28V201.72L618.93 201.44V203.36C618.93 204.533 620.05 205.12 622.29 205.12C624.53 205.12 625.65 204.307 625.65 202.68C625.65 202.093 625.45 201.613 625.05 201.24C624.677 200.867 624.304 200.613 623.93 200.48C623.557 200.347 623.104 200.213 622.57 200.08C622.064 199.947 621.557 199.813 621.05 199.68C620.57 199.547 620.037 199.373 619.45 199.16C618.89 198.92 618.264 198.587 617.57 198.16C616.21 197.28 615.53 195.813 615.53 193.76C615.53 191.68 616.264 190.08 617.73 188.96C619.197 187.84 621.037 187.28 623.25 187.28C625.49 187.28 627.704 187.813 629.89 188.88V193.68L626.29 193.96V192.28C626.29 191.613 625.984 191.16 625.37 190.92ZM640.177 187.88V204.68L642.457 204.8V208H632.937V204.96L634.257 204.84C635.031 204.76 635.417 204.333 635.417 203.56V192.44C635.417 191.987 635.337 191.68 635.177 191.52C635.044 191.36 634.791 191.28 634.417 191.28L633.017 191.2V187.88H640.177ZM635.137 184.44C634.577 183.88 634.297 183.173 634.297 182.32C634.297 181.467 634.577 180.76 635.137 180.2C635.697 179.613 636.431 179.32 637.337 179.32C638.244 179.32 638.977 179.613 639.537 180.2C640.124 180.76 640.417 181.467 640.417 182.32C640.417 183.173 640.124 183.88 639.537 184.44C638.977 184.973 638.244 185.24 637.337 185.24C636.431 185.24 635.697 184.973 635.137 184.44ZM644.533 191.08V187.88H651.293V190.48C651.986 189.493 652.906 188.72 654.053 188.16C655.2 187.573 656.44 187.28 657.773 187.28C659.8 187.28 661.36 187.867 662.453 189.04C663.573 190.187 664.133 191.92 664.133 194.24V204.68L666.413 204.8V208H656.893V204.96L658.213 204.84C658.613 204.787 658.906 204.68 659.093 204.52C659.28 204.333 659.373 204 659.373 203.52V195.28C659.373 193.813 659.146 192.733 658.693 192.04C658.24 191.32 657.373 190.96 656.093 190.96C654.84 190.96 653.84 191.36 653.093 192.16C652.346 192.96 651.973 193.907 651.973 195V204.68L654.253 204.8V208H644.733V204.96L646.053 204.84C646.453 204.787 646.746 204.68 646.933 204.52C647.12 204.333 647.213 204 647.213 203.52V192.44C647.213 191.64 646.88 191.227 646.213 191.2L644.533 191.08ZM678.798 187.28C680.798 187.28 682.384 187.773 683.558 188.76C684.731 189.72 685.318 191.08 685.318 192.84C685.318 194.013 685.064 195.053 684.558 195.96C684.051 196.84 683.424 197.533 682.678 198.04C681.931 198.547 681.024 198.96 679.958 199.28C678.171 199.813 676.158 200.08 673.918 200.08C673.998 201.493 674.438 202.64 675.238 203.52C676.038 204.373 677.264 204.8 678.918 204.8C680.571 204.8 682.224 204.213 683.878 203.04L685.398 206.28C684.864 206.76 683.958 207.253 682.678 207.76C681.424 208.267 679.984 208.52 678.358 208.52C675.104 208.52 672.718 207.627 671.198 205.84C669.678 204.027 668.918 201.547 668.918 198.4C668.918 195.253 669.784 192.613 671.518 190.48C673.251 188.347 675.678 187.28 678.798 187.28ZM676.958 196.44C677.944 196.253 678.851 195.867 679.678 195.28C680.504 194.667 680.918 193.947 680.918 193.12C680.918 191.493 680.118 190.68 678.518 190.68C677.024 190.68 675.878 191.28 675.078 192.48C674.278 193.653 673.838 195.067 673.758 196.72C674.931 196.693 675.998 196.6 676.958 196.44ZM698.613 190.92C697.973 190.68 697.199 190.56 696.293 190.56C695.386 190.56 694.653 190.773 694.093 191.2C693.559 191.6 693.293 192.107 693.293 192.72C693.293 193.307 693.386 193.773 693.573 194.12C693.786 194.44 694.106 194.72 694.533 194.96C695.199 195.307 695.999 195.613 696.933 195.88C697.866 196.12 698.559 196.32 699.013 196.48C699.466 196.613 700.026 196.853 700.693 197.2C701.386 197.547 701.906 197.92 702.253 198.32C703.186 199.307 703.653 200.573 703.653 202.12C703.653 204.12 702.919 205.693 701.453 206.84C700.013 207.96 698.173 208.52 695.933 208.52C692.679 208.52 690.226 208.107 688.573 207.28V201.72L692.173 201.44V203.36C692.173 204.533 693.293 205.12 695.533 205.12C697.773 205.12 698.893 204.307 698.893 202.68C698.893 202.093 698.693 201.613 698.293 201.24C697.919 200.867 697.546 200.613 697.173 200.48C696.799 200.347 696.346 200.213 695.813 200.08C695.306 199.947 694.799 199.813 694.293 199.68C693.813 199.547 693.279 199.373 692.692 199.16C692.133 198.92 691.506 198.587 690.813 198.16C689.453 197.28 688.773 195.813 688.773 193.76C688.773 191.68 689.506 190.08 690.973 188.96C692.439 187.84 694.279 187.28 696.493 187.28C698.733 187.28 700.946 187.813 703.133 188.88V193.68L699.533 193.96V192.28C699.533 191.613 699.226 191.16 698.613 190.92ZM716.659 190.92C716.019 190.68 715.246 190.56 714.339 190.56C713.433 190.56 712.699 190.773 712.139 191.2C711.606 191.6 711.339 192.107 711.339 192.72C711.339 193.307 711.433 193.773 711.619 194.12C711.833 194.44 712.153 194.72 712.579 194.96C713.246 195.307 714.046 195.613 714.979 195.88C715.913 196.12 716.606 196.32 717.059 196.48C717.513 196.613 718.073 196.853 718.739 197.2C719.433 197.547 719.953 197.92 720.299 198.32C721.233 199.307 721.699 200.573 721.699 202.12C721.699 204.12 720.966 205.693 719.499 206.84C718.059 207.96 716.219 208.52 713.979 208.52C710.726 208.52 708.273 208.107 706.619 207.28V201.72L710.219 201.44V203.36C710.219 204.533 711.339 205.12 713.579 205.12C715.819 205.12 716.939 204.307 716.939 202.68C716.939 202.093 716.739 201.613 716.339 201.24C715.966 200.867 715.593 200.613 715.219 200.48C714.846 200.347 714.393 200.213 713.859 200.08C713.353 199.947 712.846 199.813 712.339 199.68C711.859 199.547 711.326 199.373 710.739 199.16C710.179 198.92 709.553 198.587 708.859 198.16C707.499 197.28 706.819 195.813 706.819 193.76C706.819 191.68 707.553 190.08 709.019 188.96C710.486 187.84 712.326 187.28 714.539 187.28C716.779 187.28 718.993 187.813 721.179 188.88V193.68L717.579 193.96V192.28C717.579 191.613 717.273 191.16 716.659 190.92Z" fill="#A8A2A2"/>
</svg>
